<?xml version="1.0" encoding="UTF-8" standalone="no"?>
<svg
   height="24px"
   viewBox="0 -960 960 960"
   width="24px"
   fill="#1f1f1f"
   version="1.1"
   id="svg1"
   sodipodi:docname="palette.svg"
   inkscape:version="1.4 (86a8ad7, 2024-10-11)"
   xmlns:inkscape="http://www.inkscape.org/namespaces/inkscape"
   xmlns:sodipodi="http://sodipodi.sourceforge.net/DTD/sodipodi-0.dtd"
   xmlns="http://www.w3.org/2000/svg"
   xmlns:svg="http://www.w3.org/2000/svg">
  <defs
     id="defs1" />
  <sodipodi:namedview
     id="namedview1"
     pagecolor="#ffffff"
     bordercolor="#000000"
     borderopacity="0.25"
     inkscape:showpageshadow="2"
     inkscape:pageopacity="0.0"
     inkscape:pagecheckerboard="0"
     inkscape:deskcolor="#d1d1d1"
     inkscape:zoom="32.625"
     inkscape:cx="10.605364"
     inkscape:cy="13.226054"
     inkscape:window-width="1920"
     inkscape:window-height="1001"
     inkscape:window-x="-9"
     inkscape:window-y="-9"
     inkscape:window-maximized="1"
     inkscape:current-layer="svg1" />
  <path
     d="M476.7-40.09q-90.43 0-170.69-34.56-80.27-34.57-140.18-94.48-59.92-59.91-94.48-140.24-34.57-80.33-34.57-170.82 0-91.51 35.07-171.64 35.06-80.13 95.91-139.76 60.85-59.63 142.22-93.98 81.38-34.34 173.23-34.34 88.82 0 168.5 30.78T791.74-804q60.35 54.35 95.91 128.09 35.57 73.74 35.57 159.65 0 130.17-81.2 202.02-81.19 71.85-192.28 71.85h-45.48q-3 0-5.5 2.18-2.5 2.17-2.5 5.58 0 6.8 8.31 17.57 8.3 10.76 8.3 37.93 0 57.39-40.33 98.22-40.32 40.82-95.84 40.82ZM260.89-431.96q28.59 0 48.18-19.88 19.58-19.88 19.58-48.17 0-28.29-19.72-48.16-19.72-19.87-47.76-19.87-28.87 0-48.45 19.88-19.59 19.88-19.59 48.17 0 28.29 19.59 48.16 19.58 19.87 48.17 19.87Zm117.76-157.78q28.87 0 48.46-19.59 19.59-19.58 19.59-48.17 0-28.59-19.59-48.17-19.59-19.59-48.17-19.59-28.59 0-48.18 19.72t-19.59 47.76q0 28.87 19.72 48.45 19.72 19.59 47.76 19.59Zm195.81 0q28.58 0 48.17-19.59 19.59-19.58 19.59-48.17 0-28.59-19.72-48.17-19.72-19.59-47.76-19.59-28.87 0-48.46 19.72-19.58 19.72-19.58 47.76 0 28.87 19.58 48.45 19.59 19.59 48.18 19.59Zm117.5 157.78q28.87 0 48.45-19.88Q760-471.72 760-500.01q0-28.29-19.59-48.16-19.58-19.87-48.17-19.87-28.59 0-48.18 19.88-19.58 19.88-19.58 48.17 0 28.29 19.72 48.16 19.72 19.87 47.76 19.87Z"
     id="path1"
     style="fill:#404040;fill-opacity:1" />
  <ellipse
     style="fill:#ff0080;fill-opacity:0.40322581;stroke-width:70.3217;paint-order:stroke markers fill"
     id="path2"
     cx="260.89502"
     cy="-500"
     rx="67.754982"
     ry="67.733879" />
  <ellipse
     style="fill:#00aeff;fill-opacity:0.403922;stroke-width:70.3612;paint-order:stroke markers fill"
     id="path3"
     cx="692.20697"
     cy="-500.01001"
     rx="67.793022"
     ry="67.694519" />
  <circle
     style="fill:#ffff00;fill-opacity:0.403922;stroke-width:58.9066;paint-order:stroke markers fill"
     id="path4"
     cx="378.92978"
     cy="-657.78003"
     r="67.759773" />
  <circle
     style="fill:#00ff00;fill-opacity:0.403922;stroke-width:58.9066;paint-order:stroke markers fill"
     id="path4-8"
     cx="574.46002"
     cy="-657.49976"
     r="67.759773" />
</svg>
