<?xml version="1.0" encoding="UTF-8" standalone="no"?>
<svg
   height="24px"
   viewBox="0 -960 960 960"
   width="24px"
   fill="#1f1f1f"
   version="1.1"
   id="svg1"
   sodipodi:docname="photo_library_24dp_1F1F1F_FILL1_wght600_GRAD200_opsz24.svg"
   inkscape:version="1.4 (86a8ad7, 2024-10-11)"
   xmlns:inkscape="http://www.inkscape.org/namespaces/inkscape"
   xmlns:sodipodi="http://sodipodi.sourceforge.net/DTD/sodipodi-0.dtd"
   xmlns="http://www.w3.org/2000/svg"
   xmlns:svg="http://www.w3.org/2000/svg">
  <defs
     id="defs1" />
  <sodipodi:namedview
     id="namedview1"
     pagecolor="#ffffff"
     bordercolor="#000000"
     borderopacity="0.25"
     inkscape:showpageshadow="2"
     inkscape:pageopacity="0.0"
     inkscape:pagecheckerboard="0"
     inkscape:deskcolor="#d1d1d1"
     inkscape:zoom="23.069359"
     inkscape:cx="7.195692"
     inkscape:cy="10.988602"
     inkscape:window-width="1920"
     inkscape:window-height="1001"
     inkscape:window-x="-9"
     inkscape:window-y="-9"
     inkscape:window-maximized="1"
     inkscape:current-layer="svg1" />
  <path
     d="M367.83-405.96H793.7l-138-195.52-103.79 143.57-74.65-93.22-109.43 145.17Zm-22.44 192q-50.51 0-86.73-36.22-36.23-36.23-36.23-86.73v-472.18q0-50.51 36.23-86.73 36.22-36.22 86.73-36.22h472.18q50.5 0 86.45 36.22 35.94 36.22 35.94 86.73v472.18q0 50.5-35.94 86.73-35.95 36.22-86.45 36.22H345.39ZM142.43-11.56q-50.5 0-86.45-35.95-35.94-35.94-35.94-86.45v-595.13h122.39v595.13h595.14v122.4H142.43Z"
     id="path1"
     style="fill:#ffc20a;fill-opacity:1" />
</svg>
