<?xml version="1.0" encoding="UTF-8" standalone="no"?>
<!-- Created with Inkscape (http://www.inkscape.org/) -->
<svg
   xmlns:dc="http://purl.org/dc/elements/1.1/"
   xmlns:cc="http://web.resource.org/cc/"
   xmlns:rdf="http://www.w3.org/1999/02/22-rdf-syntax-ns#"
   xmlns:svg="http://www.w3.org/2000/svg"
   xmlns="http://www.w3.org/2000/svg"
   xmlns:sodipodi="http://sodipodi.sourceforge.net/DTD/sodipodi-0.dtd"
   xmlns:inkscape="http://www.inkscape.org/namespaces/inkscape"
   width="215"
   height="147"
   id="svg2"
   sodipodi:version="0.32"
   inkscape:version="0.45"
   version="1.0"
   sodipodi:docbase="G:\Jesús\WikiDex\img\Misc"
   sodipodi:docname="Imagen_no_disponible_txt.svg"
   inkscape:output_extension="org.inkscape.output.svg.inkscape"
   sodipodi:modified="true">
  <defs
     id="defs4" />
  <sodipodi:namedview
     id="base"
     pagecolor="#ffffff"
     bordercolor="#666666"
     borderopacity="1.0"
     inkscape:pageopacity="0.0"
     inkscape:pageshadow="2"
     inkscape:zoom="4"
     inkscape:cx="141.84816"
     inkscape:cy="73.275449"
     inkscape:document-units="px"
     inkscape:current-layer="layer2"
     width="215px"
     height="147px"
     inkscape:window-width="1280"
     inkscape:window-height="712"
     inkscape:window-x="-4"
     inkscape:window-y="-4" />
  <metadata
     id="metadata7">
    <rdf:RDF>
      <cc:Work
         rdf:about="">
        <dc:format>image/svg+xml</dc:format>
        <dc:type
           rdf:resource="http://purl.org/dc/dcmitype/StillImage" />
      </cc:Work>
    </rdf:RDF>
  </metadata>
  <g
     inkscape:groupmode="layer"
     id="layer2"
     inkscape:label="Sombra"
     style="display:inline">
    <path
       id="path5041"
       d="M 33.34375,55.990192 L 34.328125,55.990192 C 35.296872,55.990192 35.877601,55.755818 36.070313,55.287067 C 36.263017,54.818319 36.359371,52.573529 36.359375,48.552692 L 36.359375,43.255817 C 36.359371,39.089168 36.276038,36.792295 36.109375,36.365192 C 35.942705,35.938129 35.442705,35.724588 34.609375,35.724567 L 33.34375,35.724567 L 33.34375,34.740192 C 35.072914,34.81313 36.781246,34.849589 38.46875,34.849567 C 39.874993,34.849589 41.151033,34.81313 42.296875,34.740192 L 42.296875,35.724567 L 41.09375,35.724567 C 40.354159,35.724588 39.890617,35.813129 39.703125,35.990192 C 39.515618,36.167296 39.406243,36.615212 39.375,37.333942 C 39.32291,38.448543 39.296868,40.432916 39.296875,43.287067 L 39.296875,48.677692 C 39.296868,52.729779 39.38541,54.961548 39.5625,55.373004 C 39.739576,55.784464 40.307284,55.990192 41.265625,55.990192 L 42.296875,55.990192 L 42.296875,56.974567 C 41.015616,56.90165 39.619784,56.865192 38.109375,56.865192 C 36.348954,56.865192 34.760414,56.90165 33.34375,56.974567 L 33.34375,55.990192 z "
       style="font-size:32px;font-style:normal;font-variant:normal;font-weight:normal;font-stretch:normal;text-align:center;line-height:150%;writing-mode:lr-tb;text-anchor:middle;fill:none;fill-opacity:1;stroke:#dfdfdf;stroke-width:2;stroke-linejoin:round;stroke-miterlimit:4;stroke-dasharray:none;stroke-opacity:1;font-family:Book Antiqua" />
    <path
       id="path5043"
       d="M 49.21875,44.677692 L 51.3125,42.802692 C 51.645825,42.500623 51.999991,42.287081 52.375,42.162067 C 52.916657,41.974581 53.453115,41.880832 53.984375,41.880817 C 55.161446,41.880832 56.106758,42.091769 56.820313,42.513629 C 57.53384,42.935518 58.187485,43.69333 58.78125,44.787067 L 60.796875,42.943317 C 61.140607,42.630831 61.562482,42.391248 62.0625,42.224567 C 62.71873,41.995415 63.354147,41.880832 63.96875,41.880817 C 64.906228,41.880832 65.755186,42.099581 66.515625,42.537067 C 67.276018,42.97458 67.841121,43.542288 68.210938,44.240192 C 68.580704,44.93812 68.765599,45.886036 68.765625,47.083942 L 68.71875,53.193317 C 68.718724,54.557902 68.796849,55.362589 68.953125,55.607379 C 69.109349,55.852172 69.51039,55.990192 70.15625,56.021442 L 71.296875,56.068317 L 71.296875,56.974567 L 70.546875,56.927692 C 69.338516,56.865192 68.520808,56.833942 68.09375,56.833942 C 67.437476,56.833942 66.671852,56.880817 65.796875,56.974567 C 65.942686,55.068318 66.015602,52.839154 66.015625,50.287067 C 66.015602,48.130825 65.921852,46.71416 65.734375,46.037067 C 65.546853,45.359995 65.187478,44.828745 64.65625,44.443317 C 64.124979,44.057913 63.458313,43.865205 62.65625,43.865192 C 61.749981,43.865205 60.973941,44.107392 60.328125,44.591754 C 59.682275,45.076141 59.281234,45.656869 59.125,46.333942 C 59.020818,46.761035 58.968734,48.594367 58.96875,51.833942 C 58.968734,53.740195 58.984359,54.826131 59.015625,55.091754 C 59.046859,55.357381 59.132797,55.54488 59.273438,55.654254 C 59.414046,55.76363 59.864567,55.859984 60.625,55.943317 L 61.671875,56.068317 L 61.671875,56.974567 C 59.828108,56.880817 58.473943,56.833942 57.609375,56.833942 C 56.921861,56.833942 55.588529,56.880817 53.609375,56.974567 L 53.609375,56.068317 L 54.65625,56.068317 C 55.281238,56.068317 55.687488,55.979776 55.875,55.802692 C 56.062487,55.62561 56.171862,55.208943 56.203125,54.552692 C 56.286445,52.844362 56.328112,51.063114 56.328125,49.208942 C 56.328112,47.552701 56.216133,46.409473 55.992188,45.779254 C 55.768217,45.149057 55.388009,44.651662 54.851563,44.287067 C 54.315093,43.922496 53.671865,43.740205 52.921875,43.740192 C 52.119783,43.740205 51.390617,43.964163 50.734375,44.412067 C 50.078118,44.859995 49.630202,45.401661 49.390625,46.037067 C 49.234369,46.474577 49.156244,47.714159 49.15625,49.755817 C 49.156244,51.995405 49.177077,53.641236 49.21875,54.693317 C 49.239577,55.182902 49.317702,55.495401 49.453125,55.630817 C 49.588535,55.766234 50.036451,55.870401 50.796875,55.943317 L 51.875,56.068317 L 51.875,56.974567 C 50.572909,56.90165 49.343744,56.865192 48.1875,56.865192 C 46.874996,56.865192 45.447914,56.90165 43.90625,56.974567 L 43.90625,56.068317 L 45.09375,56.068317 C 45.770831,56.068317 46.17708,55.88863 46.3125,55.529254 C 46.447913,55.169881 46.515622,53.214154 46.515625,49.662067 C 46.515622,47.05791 46.499997,45.521453 46.46875,45.052692 C 46.437497,44.583954 46.348955,44.287079 46.203125,44.162067 C 46.057289,44.037079 45.614581,43.974579 44.875,43.974567 L 43.90625,43.974567 L 43.90625,43.115192 C 45.437498,42.906872 46.755205,42.620414 47.859375,42.255817 L 49,41.818317 C 49.187494,41.818332 49.281244,41.943332 49.28125,42.193317 L 49.25,42.755817 C 49.218744,43.328747 49.208327,43.969371 49.21875,44.677692 L 49.21875,44.677692 z "
       style="font-size:32px;font-style:normal;font-variant:normal;font-weight:normal;font-stretch:normal;text-align:center;line-height:150%;writing-mode:lr-tb;text-anchor:middle;fill:none;fill-opacity:1;stroke:#dfdfdf;stroke-opacity:1;font-family:Book Antiqua;stroke-width:2;stroke-miterlimit:4;stroke-dasharray:none" />
    <path
       d="M 73.6875,46.099567 L 73.703125,45.052692 L 73.6875,43.974567 L 75.390625,43.005817 C 76.161454,42.568331 76.835932,42.266248 77.414063,42.099567 C 77.992181,41.932915 78.609368,41.849582 79.265625,41.849567 C 80.703116,41.849582 81.861969,42.172498 82.742188,42.818317 C 83.622384,43.464163 84.151029,44.287079 84.328125,45.287067 C 84.453112,46.037077 84.531237,47.896451 84.5625,50.865192 C 84.58332,53.667278 84.64582,55.214152 84.75,55.505817 C 84.854153,55.797484 85.11457,55.943318 85.53125,55.943317 L 86.75,55.943317 L 86.75,56.974567 C 85.562486,56.90165 84.734362,56.865192 84.265625,56.865192 C 83.682279,56.865192 82.90103,56.90165 81.921875,56.974567 L 81.9375,55.583942 C 81.93749,55.136027 81.932281,54.682902 81.921875,54.224567 L 78.6875,56.693317 C 78.395826,56.912067 78.109368,57.065712 77.828125,57.154254 C 77.546869,57.242795 77.156244,57.287066 76.65625,57.287067 C 75.312496,57.287066 74.286456,56.956337 73.578125,56.294879 C 72.86979,55.633422 72.515624,54.745402 72.515625,53.630817 C 72.515624,52.578738 72.768228,51.659468 73.273438,50.873004 C 73.778644,50.086553 74.497393,49.505824 75.429688,49.130817 C 76.361974,48.755825 78.526035,48.266242 81.921875,47.662067 C 81.901031,46.33916 81.609365,45.349578 81.046875,44.693317 C 80.338533,43.870413 79.328117,43.458955 78.015625,43.458942 C 77.515619,43.458955 77.046869,43.521455 76.609375,43.646442 C 76.17187,43.771455 75.765621,43.958955 75.390625,44.208942 C 75.088538,44.948537 74.812497,45.656869 74.5625,46.333942 L 73.6875,46.099567 z M 81.921875,48.583942 C 79.026034,49.208949 77.187494,49.794886 76.40625,50.341754 C 75.624996,50.888635 75.234371,51.734988 75.234375,52.880817 C 75.234371,53.651653 75.458329,54.26884 75.90625,54.732379 C 76.354162,55.195922 76.932286,55.427693 77.640625,55.427692 C 78.421868,55.427693 79.169263,55.208943 79.882813,54.771442 C 80.596345,54.333944 81.276032,53.682903 81.921875,52.818317 L 81.890625,49.349567 L 81.921875,48.583942 z "
       style="font-size:32px;font-style:normal;font-variant:normal;font-weight:normal;font-stretch:normal;text-align:center;line-height:150%;writing-mode:lr-tb;text-anchor:middle;fill:none;fill-opacity:1;stroke:#dfdfdf;stroke-opacity:1;font-family:Book Antiqua;stroke-width:2;stroke-miterlimit:4;stroke-dasharray:none"
       id="path5045" />
    <path
       d="M 101.4375,44.771442 C 101.67707,45.43812 101.79686,45.984994 101.79688,46.412067 C 101.79686,47.339159 101.51561,48.232388 100.95313,49.091754 C 100.39061,49.951136 99.58853,50.643844 98.546875,51.169879 C 97.505198,51.695926 96.380199,51.958947 95.171875,51.958942 L 94.4375,51.943317 C 93.749994,52.453738 93.315098,52.833946 93.132813,53.083942 C 92.950515,53.333945 92.85937,53.578737 92.859375,53.818317 C 92.85937,54.214153 93.062494,54.526652 93.46875,54.755817 C 93.874994,54.984985 94.703118,55.099568 95.953125,55.099567 C 96.432283,55.099568 97.119782,55.083943 98.015625,55.052692 C 99.296863,55.00061 100.22395,54.974568 100.79688,54.974567 C 101.61978,54.974568 102.24999,55.107381 102.6875,55.373004 C 103.12498,55.63863 103.49998,56.102172 103.8125,56.763629 C 104.12498,57.425087 104.28123,58.172482 104.28125,59.005817 C 104.28123,60.17248 103.92707,61.289666 103.21875,62.357379 C 102.5104,63.425081 101.47915,64.281851 100.125,64.927692 C 98.770822,65.573516 97.213532,65.896433 95.453125,65.896442 C 93.307286,65.896433 91.656246,65.430287 90.5,64.498004 C 89.343748,63.565706 88.765624,62.417269 88.765625,61.052692 C 88.765624,60.208938 89.067707,59.354772 89.671875,58.490192 C 90.755205,57.979774 91.666662,57.464149 92.40625,56.943317 C 91.552079,56.662067 91.002601,56.404255 90.757813,56.169879 C 90.513018,55.935505 90.390622,55.636026 90.390625,55.271442 C 90.390622,54.833944 90.510414,54.401652 90.75,53.974567 C 90.885413,53.714153 91.229163,53.396445 91.78125,53.021442 L 93.296875,51.943317 C 92.04687,51.630822 91.14583,51.188114 90.59375,50.615192 C 89.864581,49.844365 89.499998,48.859991 89.5,47.662067 C 89.499998,46.609994 89.770831,45.651661 90.3125,44.787067 C 90.854163,43.922496 91.651037,43.240205 92.703125,42.740192 C 94.046868,42.10479 95.343742,41.787082 96.59375,41.787067 C 97.385407,41.787082 98.080719,41.891248 98.679688,42.099567 C 99.278634,42.307914 99.890613,42.662081 100.51563,43.162067 L 101.82813,43.162067 C 103.18228,43.16208 104.23436,43.120414 104.98438,43.037067 L 105.15625,43.365192 C 104.84373,43.813121 104.56769,44.281871 104.32813,44.771442 L 101.4375,44.771442 z M 99.0625,47.240192 C 99.062488,45.938119 98.729155,44.891245 98.0625,44.099567 C 97.395823,43.307913 96.557283,42.912081 95.546875,42.912067 C 94.546868,42.912081 93.742181,43.234997 93.132813,43.880817 C 92.523432,44.526662 92.218745,45.422495 92.21875,46.568317 C 92.218745,47.953742 92.549474,49.039679 93.210938,49.826129 C 93.872389,50.612594 94.703118,51.005822 95.703125,51.005817 C 96.703116,51.005822 97.513011,50.675094 98.132813,50.013629 C 98.752593,49.352178 99.062488,48.4277 99.0625,47.240192 L 99.0625,47.240192 z M 94.8125,57.193317 C 94.07291,57.193316 93.567702,57.27665 93.296875,57.443317 C 92.42187,58.005815 91.890621,58.45894 91.703125,58.802692 C 91.390621,59.344356 91.234371,60.026647 91.234375,60.849567 C 91.234371,61.984978 91.656246,62.922477 92.5,63.662067 C 93.343744,64.401642 94.515618,64.771434 96.015625,64.771442 C 97.171865,64.771434 98.187489,64.557892 99.0625,64.130817 C 99.937488,63.703726 100.61717,63.11779 101.10156,62.373004 C 101.58592,61.628208 101.82811,60.859979 101.82813,60.068317 C 101.82811,59.391231 101.65884,58.797481 101.32031,58.287067 C 100.98176,57.776649 100.57811,57.448524 100.10938,57.302692 C 99.869779,57.229775 99.322905,57.193316 98.46875,57.193317 L 94.8125,57.193317 z "
       style="font-size:32px;font-style:normal;font-variant:normal;font-weight:normal;font-stretch:normal;text-align:center;line-height:150%;writing-mode:lr-tb;text-anchor:middle;fill:none;fill-opacity:1;stroke:#dfdfdf;stroke-opacity:1;font-family:Book Antiqua;stroke-width:2;stroke-miterlimit:4;stroke-dasharray:none"
       id="path5047" />
    <path
       d="M 109.125,49.412067 C 109.17708,51.464155 109.70312,53.021445 110.70313,54.083942 C 111.70312,55.146443 113.01562,55.677693 114.64063,55.677692 C 115.36978,55.677693 116.09374,55.557901 116.8125,55.318317 C 117.53124,55.078735 118.24478,54.71936 118.95313,54.240192 L 119.21875,54.474567 L 118.71875,55.787067 C 117.85415,56.287067 116.96353,56.662067 116.04688,56.912067 C 115.1302,57.162066 114.18749,57.287066 113.21875,57.287067 C 111.10416,57.287066 109.39843,56.617796 108.10156,55.279254 C 106.80469,53.940715 106.15625,52.125613 106.15625,49.833942 C 106.15625,48.08395 106.52083,46.568327 107.25,45.287067 C 107.72916,44.443329 108.61458,43.66208 109.90625,42.943317 C 111.19791,42.224581 112.45312,41.865207 113.67188,41.865192 C 115.51561,41.865207 116.97655,42.406873 118.05469,43.490192 C 119.1328,44.573537 119.67186,46.089161 119.67188,48.037067 L 119.64063,48.958942 C 118.95311,49.125616 118.29686,49.234991 117.67188,49.287067 C 116.55728,49.370407 115.01041,49.412074 113.03125,49.412067 L 109.125,49.412067 z M 109.17188,48.240192 C 110.78645,48.313117 112.5677,48.349575 114.51563,48.349567 C 115.29686,48.349575 116.05207,48.313117 116.78125,48.240192 L 116.78125,47.365192 C 116.78124,46.448535 116.59895,45.578745 116.23438,44.755817 C 116.0052,44.245413 115.60416,43.820934 115.03125,43.482379 C 114.45832,43.143851 113.79687,42.97458 113.04688,42.974567 C 111.8802,42.97458 110.94791,43.401663 110.25,44.255817 C 109.55208,45.109995 109.1927,46.438119 109.17188,48.240192 L 109.17188,48.240192 z "
       style="font-size:32px;font-style:normal;font-variant:normal;font-weight:normal;font-stretch:normal;text-align:center;line-height:150%;writing-mode:lr-tb;text-anchor:middle;fill:none;fill-opacity:1;stroke:#dfdfdf;stroke-opacity:1;font-family:Book Antiqua;stroke-width:2;stroke-miterlimit:4;stroke-dasharray:none"
       id="path5049" />
    <path
       id="path5051"
       d="M 126.23438,44.849567 L 128.59375,42.755817 C 128.87499,42.505831 129.17187,42.323539 129.48438,42.208942 C 130.17187,41.97979 130.85936,41.865207 131.54688,41.865192 C 132.66145,41.865207 133.62499,42.091769 134.4375,42.544879 C 135.24999,42.998018 135.83332,43.586559 136.1875,44.310504 C 136.54165,45.034474 136.71873,46.167286 136.71875,47.708942 L 136.64063,52.630817 C 136.64061,54.328736 136.71353,55.307901 136.85938,55.568317 C 137.05728,55.901651 137.44269,56.068317 138.01563,56.068317 L 139.14063,56.068317 L 139.14063,56.974567 C 138.02602,56.90165 137.06248,56.865192 136.25,56.865192 C 135.45832,56.865192 134.60936,56.90165 133.70313,56.974567 C 133.90103,54.943319 133.99999,52.19853 134,48.740192 C 133.99999,47.344368 133.87759,46.354785 133.63281,45.771442 C 133.38801,45.18812 132.97655,44.71937 132.39844,44.365192 C 131.8203,44.011038 131.12499,43.833955 130.3125,43.833942 C 129.30207,43.833955 128.4453,44.089163 127.74219,44.599567 C 127.03906,45.109995 126.60416,45.672494 126.4375,46.287067 C 126.33333,46.693327 126.28124,47.755826 126.28125,49.474567 C 126.28124,51.380822 126.29687,53.151654 126.32813,54.787067 C 126.33854,55.276652 126.41145,55.583943 126.54688,55.708942 C 126.80729,55.948526 127.23437,56.068317 127.82813,56.068317 L 128.9375,56.068317 L 128.9375,56.974567 C 127.17708,56.90165 125.77604,56.865192 124.73438,56.865192 C 123.63021,56.865192 122.375,56.90165 120.96875,56.974567 L 120.96875,56.068317 L 122.09375,56.068317 C 122.86458,56.068317 123.3151,55.88863 123.44531,55.529254 C 123.57552,55.169881 123.64062,53.00582 123.64063,49.037067 C 123.64062,47.255826 123.61979,45.859994 123.57813,44.849567 C 123.55729,44.516246 123.47396,44.287079 123.32813,44.162067 C 123.18229,44.037079 122.77083,43.974579 122.09375,43.974567 L 120.96875,43.974567 L 120.96875,43.083942 C 121.86458,42.979789 122.66666,42.839164 123.375,42.662067 C 124.08333,42.484998 124.8802,42.214165 125.76563,41.849567 C 125.85937,41.807915 125.94791,41.787082 126.03125,41.787067 C 126.19791,41.787082 126.28124,41.906873 126.28125,42.146442 L 126.26563,42.740192 L 126.23438,44.849567 z "
       style="font-size:32px;font-style:normal;font-variant:normal;font-weight:normal;font-stretch:normal;text-align:center;line-height:150%;writing-mode:lr-tb;text-anchor:middle;fill:none;fill-opacity:1;stroke:#dfdfdf;stroke-opacity:1;font-family:Book Antiqua;stroke-width:2;stroke-miterlimit:4;stroke-dasharray:none" />
    <path
       id="path5053"
       d="M 152.85938,44.849567 L 155.21875,42.755817 C 155.49999,42.505831 155.79687,42.323539 156.10938,42.208942 C 156.79687,41.97979 157.48436,41.865207 158.17188,41.865192 C 159.28645,41.865207 160.24999,42.091769 161.0625,42.544879 C 161.87499,42.998018 162.45832,43.586559 162.8125,44.310504 C 163.16665,45.034474 163.34373,46.167286 163.34375,47.708942 L 163.26563,52.630817 C 163.26561,54.328736 163.33853,55.307901 163.48438,55.568317 C 163.68228,55.901651 164.06769,56.068317 164.64063,56.068317 L 165.76563,56.068317 L 165.76563,56.974567 C 164.65102,56.90165 163.68748,56.865192 162.875,56.865192 C 162.08332,56.865192 161.23436,56.90165 160.32813,56.974567 C 160.52603,54.943319 160.62499,52.19853 160.625,48.740192 C 160.62499,47.344368 160.50259,46.354785 160.25781,45.771442 C 160.01301,45.18812 159.60155,44.71937 159.02344,44.365192 C 158.4453,44.011038 157.74999,43.833955 156.9375,43.833942 C 155.92707,43.833955 155.0703,44.089163 154.36719,44.599567 C 153.66406,45.109995 153.22916,45.672494 153.0625,46.287067 C 152.95833,46.693327 152.90624,47.755826 152.90625,49.474567 C 152.90624,51.380822 152.92187,53.151654 152.95313,54.787067 C 152.96354,55.276652 153.03645,55.583943 153.17188,55.708942 C 153.43229,55.948526 153.85937,56.068317 154.45313,56.068317 L 155.5625,56.068317 L 155.5625,56.974567 C 153.80208,56.90165 152.40104,56.865192 151.35938,56.865192 C 150.25521,56.865192 149,56.90165 147.59375,56.974567 L 147.59375,56.068317 L 148.71875,56.068317 C 149.48958,56.068317 149.9401,55.88863 150.07031,55.529254 C 150.20052,55.169881 150.26562,53.00582 150.26563,49.037067 C 150.26562,47.255826 150.24479,45.859994 150.20313,44.849567 C 150.18229,44.516246 150.09896,44.287079 149.95313,44.162067 C 149.80729,44.037079 149.39583,43.974579 148.71875,43.974567 L 147.59375,43.974567 L 147.59375,43.083942 C 148.48958,42.979789 149.29166,42.839164 150,42.662067 C 150.70833,42.484998 151.5052,42.214165 152.39063,41.849567 C 152.48437,41.807915 152.57291,41.787082 152.65625,41.787067 C 152.82291,41.787082 152.90624,41.906873 152.90625,42.146442 L 152.89063,42.740192 L 152.85938,44.849567 z "
       style="font-size:32px;font-style:normal;font-variant:normal;font-weight:normal;font-stretch:normal;text-align:center;line-height:150%;writing-mode:lr-tb;text-anchor:middle;fill:none;fill-opacity:1;stroke:#dfdfdf;stroke-opacity:1;font-family:Book Antiqua;stroke-width:2;stroke-miterlimit:4;stroke-dasharray:none" />
    <path
       d="M 166.95313,49.474567 C 166.95312,48.037075 167.28646,46.737598 167.95313,45.576129 C 168.61979,44.414683 169.55468,43.50583 170.75781,42.849567 C 171.96093,42.193331 173.32812,41.865207 174.85938,41.865192 C 177.07811,41.865207 178.85415,42.521456 180.1875,43.833942 C 181.52082,45.146453 182.18748,46.896452 182.1875,49.083942 C 182.18748,51.66728 181.31769,53.719361 179.57813,55.240192 C 178.02603,56.604775 176.16666,57.287066 174,57.287067 C 171.91666,57.287066 170.22135,56.586546 168.91406,55.185504 C 167.60677,53.784466 166.95312,51.880822 166.95313,49.474567 L 166.95313,49.474567 z M 169.89063,48.365192 C 169.89062,50.511031 170.33072,52.346967 171.21094,53.873004 C 172.09114,55.399047 173.35937,56.162067 175.01563,56.162067 C 176.27603,56.162067 177.29426,55.682901 178.07031,54.724567 C 178.84634,53.766236 179.23436,52.313113 179.23438,50.365192 C 179.23436,48.792283 179.0052,47.430305 178.54688,46.279254 C 178.08853,45.128224 177.48436,44.289683 176.73438,43.763629 C 175.98436,43.237601 175.14582,42.97458 174.21875,42.974567 C 173.39583,42.97458 172.65364,43.182914 171.99219,43.599567 C 171.33072,44.016246 170.84374,44.573537 170.53125,45.271442 C 170.10416,46.219369 169.89062,47.250618 169.89063,48.365192 L 169.89063,48.365192 z "
       style="font-size:32px;font-style:normal;font-variant:normal;font-weight:normal;font-stretch:normal;text-align:center;line-height:150%;writing-mode:lr-tb;text-anchor:middle;fill:none;fill-opacity:1;stroke:#dfdfdf;stroke-opacity:1;font-family:Book Antiqua;stroke-width:2;stroke-miterlimit:4;stroke-dasharray:none"
       id="path5055" />
    <path
       d="M 46.484375,90.818317 L 46.484375,85.162067 C 46.484362,84.505837 46.411445,84.094379 46.265625,83.927692 C 46.119779,83.761046 45.786446,83.677713 45.265625,83.677692 L 43.921875,83.677692 L 43.921875,82.740192 C 45.776029,82.615214 47.505194,82.229798 49.109375,81.583942 L 49.390625,81.771442 C 49.317692,82.833964 49.255192,84.115212 49.203125,85.615192 L 49.140625,89.771442 L 49.109375,91.115192 L 49.109375,100.44332 C 49.109359,102.1829 49.161442,103.15165 49.265625,103.34957 C 49.421859,103.63082 49.85415,103.81832 50.5625,103.91207 L 51.671875,104.05269 L 51.671875,104.97457 C 50.390608,104.88082 49.260401,104.83394 48.28125,104.83394 C 48.104152,104.83394 47.447902,104.88082 46.3125,104.97457 C 46.385403,104.26623 46.442695,103.26103 46.484375,101.95894 C 45.598946,102.64644 44.468739,103.60998 43.09375,104.84957 C 42.208324,105.14123 41.427075,105.28707 40.75,105.28707 C 38.989577,105.28707 37.515621,104.62561 36.328125,103.30269 C 35.140623,101.97978 34.546874,100.20895 34.546875,97.990192 C 34.546874,96.604783 34.77604,95.422493 35.234375,94.443317 C 35.692706,93.464161 36.23958,92.753225 36.875,92.310504 C 37.510412,91.867809 38.499995,91.307913 39.84375,90.630817 C 40.874992,90.120415 41.828116,89.865207 42.703125,89.865192 C 43.296865,89.865207 43.908843,89.943332 44.539063,90.099567 C 45.169259,90.255831 45.817696,90.495414 46.484375,90.818317 L 46.484375,90.818317 z M 46.484375,93.505817 C 45.765612,92.734995 45.018217,92.156871 44.242188,91.771442 C 43.466136,91.386038 42.65624,91.19333 41.8125,91.193317 C 40.447909,91.19333 39.348952,91.690726 38.515625,92.685504 C 37.682287,93.680307 37.265621,95.136035 37.265625,97.052692 C 37.265621,99.000614 37.742183,100.52926 38.695313,101.63863 C 39.648431,102.74801 40.807284,103.30269 42.171875,103.30269 C 43.005198,103.30269 43.770823,103.07092 44.46875,102.60738 C 45.166655,102.14384 45.677071,101.54228 46,100.80269 C 46.322903,100.06311 46.484362,98.901656 46.484375,97.318317 L 46.484375,93.505817 z "
       style="font-size:32px;font-style:normal;font-variant:normal;font-weight:normal;font-stretch:normal;text-align:center;line-height:150%;writing-mode:lr-tb;text-anchor:middle;fill:none;fill-opacity:1;stroke:#dfdfdf;stroke-opacity:1;font-family:Book Antiqua;stroke-width:2;stroke-miterlimit:4;stroke-dasharray:none"
       id="path5057" />
    <path
       id="path5059"
       d="M 57.375,82.880817 C 57.854162,82.880839 58.265619,83.055318 58.609375,83.404254 C 58.953119,83.753234 59.124994,84.172504 59.125,84.662067 C 59.124994,85.15167 58.953119,85.568336 58.609375,85.912067 C 58.265619,86.255835 57.854162,86.42771 57.375,86.427692 C 56.885412,86.42771 56.468746,86.255835 56.125,85.912067 C 55.781247,85.568336 55.609372,85.15167 55.609375,84.662067 C 55.609372,84.172504 55.781247,83.753234 56.125,83.404254 C 56.468746,83.055318 56.885412,82.880839 57.375,82.880817 L 57.375,82.880817 z "
       style="font-size:32px;font-style:normal;font-variant:normal;font-weight:normal;font-stretch:normal;text-align:center;line-height:150%;writing-mode:lr-tb;text-anchor:middle;fill:none;fill-opacity:1;stroke:#dfdfdf;stroke-opacity:1;font-family:Book Antiqua;stroke-width:2;stroke-miterlimit:4;stroke-dasharray:none" />
    <path
       id="path5061"
       d="M 58.625,89.802692 L 59,90.037067 C 58.927077,90.818331 58.880202,91.677705 58.859375,92.615192 C 58.786452,95.656867 58.749994,97.901657 58.75,99.349567 C 58.749994,100.70374 58.796869,101.85999 58.890625,102.81832 C 58.932285,103.19332 59.031244,103.45373 59.1875,103.59957 C 59.343743,103.7454 59.718743,103.85478 60.3125,103.92769 L 61.375,104.06832 L 61.375,104.97457 C 59.85416,104.90165 58.468744,104.86519 57.21875,104.86519 C 55.98958,104.86519 54.749998,104.90165 53.5,104.97457 L 53.5,104.06832 L 54.84375,103.92769 C 55.364581,103.88603 55.684893,103.78967 55.804688,103.63863 C 55.924476,103.48759 55.999997,102.98498 56.03125,102.13082 C 56.08333,100.8079 56.109372,98.984989 56.109375,96.662067 C 56.109372,95.047493 56.08333,93.802703 56.03125,92.927692 C 56.010413,92.604787 55.919268,92.375621 55.757813,92.240192 C 55.596351,92.104788 55.234372,92.037079 54.671875,92.037067 L 53.5,92.037067 L 53.5,91.115192 C 54.770831,90.927706 55.705726,90.755831 56.304688,90.599567 C 56.903642,90.443331 57.677078,90.177706 58.625,89.802692 L 58.625,89.802692 z "
       style="font-size:32px;font-style:normal;font-variant:normal;font-weight:normal;font-stretch:normal;text-align:center;line-height:150%;writing-mode:lr-tb;text-anchor:middle;fill:none;fill-opacity:1;stroke:#dfdfdf;stroke-opacity:1;font-family:Book Antiqua;stroke-width:2;stroke-miterlimit:4;stroke-dasharray:none" />
    <path
       id="path5063"
       d="M 64.390625,100.19332 L 64.390625,101.20894 C 64.390623,102.02144 64.463539,102.52665 64.609375,102.72457 C 64.880205,103.0579 65.408851,103.38082 66.195313,103.69332 C 66.981766,104.00582 67.791661,104.16207 68.625,104.16207 C 69.697909,104.16207 70.572908,103.87301 71.25,103.29488 C 71.927073,102.71676 72.265615,102.02665 72.265625,101.22457 C 72.265615,100.58915 72.067698,100.07874 71.671875,99.693317 C 71.276032,99.307905 70.520825,99.000614 69.40625,98.771442 C 67.333328,98.354781 65.963538,97.990198 65.296875,97.677692 C 64.630206,97.365199 64.130206,96.948533 63.796875,96.427692 C 63.46354,95.906867 63.296874,95.27666 63.296875,94.537067 C 63.296874,93.151662 63.799477,92.026663 64.804688,91.162067 C 65.809892,90.297498 67.23437,89.865207 69.078125,89.865192 C 70.53645,89.865207 71.989573,90.156873 73.4375,90.740192 C 73.354155,91.448538 73.286447,92.636037 73.234375,94.302692 L 72.3125,94.302692 C 72.291656,93.386036 72.192698,92.78187 72.015625,92.490192 C 71.776032,92.104788 71.338532,91.75583 70.703125,91.443317 C 70.0677,91.13083 69.390618,90.97458 68.671875,90.974567 C 67.723953,90.97458 66.966141,91.216768 66.398438,91.701129 C 65.830725,92.185517 65.546871,92.792287 65.546875,93.521442 C 65.546871,94.219369 65.77083,94.74541 66.21875,95.099567 C 66.666662,95.464159 67.906244,95.849576 69.9375,96.255817 C 71.437491,96.557908 72.427073,96.839158 72.90625,97.099567 C 73.385405,97.359991 73.770822,97.755824 74.0625,98.287067 C 74.354154,98.818323 74.499988,99.427697 74.5,100.11519 C 74.499988,101.52145 73.898426,102.73498 72.695313,103.75582 C 71.492178,104.77665 69.885409,105.28707 67.875,105.28707 C 66.593745,105.28707 65.156247,105.08394 63.5625,104.67769 C 63.281249,104.60478 63.140624,104.4954 63.140625,104.34957 L 63.1875,104.13082 C 63.229165,103.97457 63.265624,103.69853 63.296875,103.30269 C 63.390624,102.29228 63.437499,101.50582 63.4375,100.94332 L 63.421875,100.19332 L 64.390625,100.19332 z "
       style="font-size:32px;font-style:normal;font-variant:normal;font-weight:normal;font-stretch:normal;text-align:center;line-height:150%;writing-mode:lr-tb;text-anchor:middle;fill:none;fill-opacity:1;stroke:#dfdfdf;stroke-opacity:1;font-family:Book Antiqua;stroke-width:2;stroke-miterlimit:4;stroke-dasharray:none" />
    <path
       d="M 81.625,93.021442 L 83.8125,91.083942 C 84.364575,90.594373 84.833324,90.287081 85.21875,90.162067 C 85.833323,89.964165 86.552072,89.865207 87.375,89.865192 C 89.229153,89.865207 90.729152,90.438123 91.875,91.583942 C 93.020816,92.729787 93.593732,94.208952 93.59375,96.021442 C 93.593732,96.9277 93.463524,97.820928 93.203125,98.701129 C 92.942691,99.581343 92.624983,100.30009 92.25,100.85738 C 91.874984,101.41467 91.453109,101.88082 90.984375,102.25582 C 90.82811,102.38082 90.192694,102.79228 89.078125,103.49019 L 88.453125,103.94332 C 87.661446,104.4954 87.023426,104.85738 86.539063,105.02925 C 86.054677,105.20113 85.49999,105.28707 84.875,105.28707 C 84.385408,105.28707 83.869783,105.21675 83.328125,105.07613 C 82.786451,104.9355 82.218743,104.72978 81.625,104.45894 L 81.625,106.66207 C 81.624994,108.92248 81.656244,110.51623 81.71875,111.44332 C 81.749994,111.84956 81.880202,112.14383 82.109375,112.32613 C 82.338535,112.50841 82.822909,112.59956 83.5625,112.59957 L 84.40625,112.59957 L 84.40625,113.47457 C 82.437493,113.41206 80.994786,113.38081 80.078125,113.38082 C 79.067705,113.38081 77.781248,113.41206 76.21875,113.47457 L 76.21875,112.59957 L 77.359375,112.59957 C 78.161456,112.59956 78.635414,112.42768 78.78125,112.08394 C 78.92708,111.74018 78.999997,109.90685 79,106.58394 L 79,96.990192 C 78.999997,95.323534 78.95833,94.037077 78.875,93.130817 C 78.83333,92.693329 78.731768,92.404267 78.570313,92.263629 C 78.408851,92.123017 78.031248,92.052704 77.4375,92.052692 L 76.21875,92.052692 L 76.21875,91.083942 C 77.666665,90.927706 79.088538,90.630831 80.484375,90.193317 L 81.4375,89.818317 C 81.604161,89.818332 81.687494,89.964165 81.6875,90.255817 L 81.640625,91.912067 L 81.625,93.021442 z M 81.625,101.61519 C 82.29166,102.36519 82.958326,102.89644 83.625,103.20894 C 84.291658,103.52144 85.010407,103.67769 85.78125,103.67769 C 87.427071,103.67769 88.687487,103.0579 89.5625,101.81832 C 90.437485,100.57874 90.874985,99.104781 90.875,97.396442 C 90.874985,96.250617 90.674464,95.268847 90.273438,94.451129 C 89.872382,93.633432 89.286445,92.992808 88.515625,92.529254 C 87.744779,92.065725 86.916655,91.833955 86.03125,91.833942 C 85.40624,91.833955 84.794262,91.958955 84.195313,92.208942 C 83.596346,92.458954 83.072909,92.805308 82.625,93.248004 C 82.177077,93.690724 81.890619,94.099577 81.765625,94.474567 C 81.671869,94.755827 81.624994,95.500618 81.625,96.708942 L 81.625,101.61519 z "
       style="font-size:32px;font-style:normal;font-variant:normal;font-weight:normal;font-stretch:normal;text-align:center;line-height:150%;writing-mode:lr-tb;text-anchor:middle;fill:none;fill-opacity:1;stroke:#dfdfdf;stroke-opacity:1;font-family:Book Antiqua;stroke-width:2;stroke-miterlimit:4;stroke-dasharray:none"
       id="path5065" />
    <path
       d="M 95.953125,97.474567 C 95.953124,96.037075 96.286457,94.737598 96.953125,93.576129 C 97.619789,92.414683 98.554684,91.50583 99.757813,90.849567 C 100.96093,90.193331 102.32812,89.865207 103.85938,89.865192 C 106.07811,89.865207 107.85415,90.521456 109.1875,91.833942 C 110.52082,93.146453 111.18748,94.896452 111.1875,97.083942 C 111.18748,99.66728 110.31769,101.71936 108.57813,103.24019 C 107.02603,104.60478 105.16666,105.28707 103,105.28707 C 100.91666,105.28707 99.22135,104.58655 97.914063,103.1855 C 96.606769,101.78447 95.953124,99.880822 95.953125,97.474567 L 95.953125,97.474567 z M 98.890625,96.365192 C 98.890621,98.511031 99.330725,100.34697 100.21094,101.873 C 101.09114,103.39905 102.35937,104.16207 104.01563,104.16207 C 105.27603,104.16207 106.29426,103.6829 107.07031,102.72457 C 107.84634,101.76624 108.23436,100.31311 108.23438,98.365192 C 108.23436,96.792283 108.0052,95.430305 107.54688,94.279254 C 107.08853,93.128224 106.48436,92.289683 105.73438,91.763629 C 104.98436,91.237601 104.14582,90.97458 103.21875,90.974567 C 102.39583,90.97458 101.65364,91.182914 100.99219,91.599567 C 100.33072,92.016246 99.843745,92.573537 99.53125,93.271442 C 99.104162,94.219369 98.890621,95.250618 98.890625,96.365192 L 98.890625,96.365192 z "
       style="font-size:32px;font-style:normal;font-variant:normal;font-weight:normal;font-stretch:normal;text-align:center;line-height:150%;writing-mode:lr-tb;text-anchor:middle;fill:none;fill-opacity:1;stroke:#dfdfdf;stroke-opacity:1;font-family:Book Antiqua;stroke-width:2;stroke-miterlimit:4;stroke-dasharray:none"
       id="path5067" />
    <path
       id="path5069"
       d="M 117.98438,92.849567 L 120.34375,90.755817 C 120.62499,90.505831 120.92187,90.323539 121.23438,90.208942 C 121.92187,89.97979 122.60936,89.865207 123.29688,89.865192 C 124.41145,89.865207 125.37499,90.091769 126.1875,90.544879 C 126.99999,90.998018 127.58332,91.586559 127.9375,92.310504 C 128.29165,93.034474 128.46873,94.167286 128.46875,95.708942 L 128.39063,100.63082 C 128.39061,102.32874 128.46353,103.3079 128.60938,103.56832 C 128.80728,103.90165 129.19269,104.06832 129.76563,104.06832 L 130.89063,104.06832 L 130.89063,104.97457 C 129.77602,104.90165 128.81248,104.86519 128,104.86519 C 127.20832,104.86519 126.35936,104.90165 125.45313,104.97457 C 125.65103,102.94332 125.74999,100.19853 125.75,96.740192 C 125.74999,95.344368 125.62759,94.354785 125.38281,93.771442 C 125.13801,93.18812 124.72655,92.71937 124.14844,92.365192 C 123.5703,92.011038 122.87499,91.833955 122.0625,91.833942 C 121.05207,91.833955 120.1953,92.089163 119.49219,92.599567 C 118.78906,93.109995 118.35416,93.672494 118.1875,94.287067 C 118.08333,94.693327 118.03124,95.755826 118.03125,97.474567 C 118.03124,99.380822 118.04687,101.15165 118.07813,102.78707 C 118.08854,103.27665 118.16145,103.58394 118.29688,103.70894 C 118.55729,103.94853 118.98437,104.06832 119.57813,104.06832 L 120.6875,104.06832 L 120.6875,104.97457 C 118.92708,104.90165 117.52604,104.86519 116.48438,104.86519 C 115.38021,104.86519 114.125,104.90165 112.71875,104.97457 L 112.71875,104.06832 L 113.84375,104.06832 C 114.61458,104.06832 115.0651,103.88863 115.19531,103.52925 C 115.32552,103.16988 115.39062,101.00582 115.39063,97.037067 C 115.39062,95.255826 115.36979,93.859994 115.32813,92.849567 C 115.30729,92.516246 115.22396,92.287079 115.07813,92.162067 C 114.93229,92.037079 114.52083,91.974579 113.84375,91.974567 L 112.71875,91.974567 L 112.71875,91.083942 C 113.61458,90.979789 114.41666,90.839164 115.125,90.662067 C 115.83333,90.484998 116.6302,90.214165 117.51563,89.849567 C 117.60937,89.807915 117.69791,89.787082 117.78125,89.787067 C 117.94791,89.787082 118.03124,89.906873 118.03125,90.146442 L 118.01563,90.740192 L 117.98438,92.849567 z "
       style="font-size:32px;font-style:normal;font-variant:normal;font-weight:normal;font-stretch:normal;text-align:center;line-height:150%;writing-mode:lr-tb;text-anchor:middle;fill:none;fill-opacity:1;stroke:#dfdfdf;stroke-opacity:1;font-family:Book Antiqua;stroke-width:2;stroke-miterlimit:4;stroke-dasharray:none" />
    <path
       id="path5071"
       d="M 135.625,82.880817 C 136.10416,82.880839 136.51562,83.055318 136.85938,83.404254 C 137.20312,83.753234 137.37499,84.172504 137.375,84.662067 C 137.37499,85.15167 137.20312,85.568336 136.85938,85.912067 C 136.51562,86.255835 136.10416,86.42771 135.625,86.427692 C 135.13541,86.42771 134.71875,86.255835 134.375,85.912067 C 134.03125,85.568336 133.85937,85.15167 133.85938,84.662067 C 133.85937,84.172504 134.03125,83.753234 134.375,83.404254 C 134.71875,83.055318 135.13541,82.880839 135.625,82.880817 L 135.625,82.880817 z "
       style="font-size:32px;font-style:normal;font-variant:normal;font-weight:normal;font-stretch:normal;text-align:center;line-height:150%;writing-mode:lr-tb;text-anchor:middle;fill:none;fill-opacity:1;stroke:#dfdfdf;stroke-opacity:1;font-family:Book Antiqua;stroke-width:2;stroke-miterlimit:4;stroke-dasharray:none" />
    <path
       id="path5073"
       d="M 136.875,89.802692 L 137.25,90.037067 C 137.17708,90.818331 137.1302,91.677705 137.10938,92.615192 C 137.03645,95.656867 136.99999,97.901657 137,99.349567 C 136.99999,100.70374 137.04687,101.85999 137.14063,102.81832 C 137.18229,103.19332 137.28124,103.45373 137.4375,103.59957 C 137.59374,103.7454 137.96874,103.85478 138.5625,103.92769 L 139.625,104.06832 L 139.625,104.97457 C 138.10416,104.90165 136.71874,104.86519 135.46875,104.86519 C 134.23958,104.86519 133,104.90165 131.75,104.97457 L 131.75,104.06832 L 133.09375,103.92769 C 133.61458,103.88603 133.93489,103.78967 134.05469,103.63863 C 134.17448,103.48759 134.25,102.98498 134.28125,102.13082 C 134.33333,100.8079 134.35937,98.984989 134.35938,96.662067 C 134.35937,95.047493 134.33333,93.802703 134.28125,92.927692 C 134.26041,92.604787 134.16927,92.375621 134.00781,92.240192 C 133.84635,92.104788 133.48437,92.037079 132.92188,92.037067 L 131.75,92.037067 L 131.75,91.115192 C 133.02083,90.927706 133.95573,90.755831 134.55469,90.599567 C 135.15364,90.443331 135.92708,90.177706 136.875,89.802692 L 136.875,89.802692 z "
       style="font-size:32px;font-style:normal;font-variant:normal;font-weight:normal;font-stretch:normal;text-align:center;line-height:150%;writing-mode:lr-tb;text-anchor:middle;fill:none;fill-opacity:1;stroke:#dfdfdf;stroke-opacity:1;font-family:Book Antiqua;stroke-width:2;stroke-miterlimit:4;stroke-dasharray:none" />
    <path
       d="M 140.48438,83.646442 L 140.48438,82.771442 C 141.39062,82.677714 142.32812,82.526672 143.29688,82.318317 C 143.96354,82.182923 144.67187,81.969381 145.42188,81.677692 C 145.53645,81.625632 145.63541,81.59959 145.71875,81.599567 C 145.93749,81.59959 146.04687,81.797506 146.04688,82.193317 L 145.96875,82.974567 C 145.89583,83.568338 145.85416,84.011046 145.84375,84.302692 C 145.81249,85.646461 145.79687,87.479792 145.79688,89.802692 L 145.79688,93.115192 L 147.70313,91.193317 C 148.10937,90.797497 148.64322,90.477185 149.30469,90.232379 C 149.96614,89.987602 150.67186,89.865207 151.42188,89.865192 C 153.09895,89.865207 154.47915,90.443331 155.5625,91.599567 C 156.64582,92.755829 157.18748,94.292286 157.1875,96.208942 C 157.18748,97.261033 156.99738,98.284469 156.61719,99.279254 C 156.23696,100.27405 155.77603,101.07874 155.23438,101.69332 C 154.98436,101.98499 154.28905,102.54488 153.14844,103.373 C 152.0078,104.20113 151.27082,104.69332 150.9375,104.84957 C 150.31249,105.14123 149.5677,105.28707 148.70313,105.28707 C 147.92187,105.28707 147.22135,105.1829 146.60156,104.97457 C 145.98177,104.76623 145.33333,104.40686 144.65625,103.89644 L 143.40625,105.05269 L 142.875,104.84957 C 143.07291,103.2454 143.17187,101.5579 143.17188,99.787067 L 143.17188,89.865192 C 143.17187,88.333958 143.125,86.766251 143.03125,85.162067 C 142.98958,84.422504 142.90104,83.985004 142.76563,83.849567 C 142.63021,83.714171 142.32291,83.646463 141.84375,83.646442 L 140.48438,83.646442 z M 145.79688,99.880817 C 145.79687,101.00582 145.83854,101.65165 145.92188,101.81832 C 146.08854,102.16207 146.53906,102.5579 147.27344,103.00582 C 148.0078,103.45373 148.81249,103.67769 149.6875,103.67769 C 151.20832,103.67769 152.3854,103.06832 153.21875,101.84957 C 154.05207,100.63082 154.46874,99.151656 154.46875,97.412067 C 154.46874,95.599576 154.06509,94.216765 153.25781,93.263629 C 152.45051,92.310517 151.36457,91.833955 150,91.833942 C 149.09374,91.833955 148.26301,92.094371 147.50781,92.615192 C 146.7526,93.136037 146.23437,93.745411 145.95313,94.443317 C 145.84895,94.71416 145.79687,95.339159 145.79688,96.318317 L 145.79688,99.880817 z "
       style="font-size:32px;font-style:normal;font-variant:normal;font-weight:normal;font-stretch:normal;text-align:center;line-height:150%;writing-mode:lr-tb;text-anchor:middle;fill:none;fill-opacity:1;stroke:#dfdfdf;stroke-opacity:1;font-family:Book Antiqua;stroke-width:2;stroke-miterlimit:4;stroke-dasharray:none"
       id="path5075" />
    <path
       id="path5077"
       d="M 164.17188,81.771442 C 163.99479,84.823545 163.90624,87.583959 163.90625,90.052692 L 163.90625,98.083942 C 163.90624,101.27145 163.97395,103.07873 164.10938,103.50582 C 164.18229,103.72457 164.52604,103.86519 165.14063,103.92769 L 166.46875,104.06832 L 166.46875,104.97457 C 165.33333,104.90165 164.24999,104.86519 163.21875,104.86519 C 162.07291,104.86519 160.57291,104.90165 158.71875,104.97457 L 158.71875,104.06832 L 160.0625,103.95894 C 160.65625,103.90686 160.99479,103.75582 161.07813,103.50582 C 161.21354,103.09957 161.28125,101.25061 161.28125,97.958942 L 161.28125,89.974567 L 161.26563,86.974567 L 161.21875,84.927692 C 161.21875,84.417295 161.16146,84.104796 161.04688,83.990192 C 160.88021,83.823546 160.53125,83.740213 160,83.740192 L 158.71875,83.740192 L 158.71875,82.802692 C 160.88541,82.604797 162.61458,82.198548 163.90625,81.583942 L 164.17188,81.771442 z "
       style="font-size:32px;font-style:normal;font-variant:normal;font-weight:normal;font-stretch:normal;text-align:center;line-height:150%;writing-mode:lr-tb;text-anchor:middle;fill:none;fill-opacity:1;stroke:#dfdfdf;stroke-opacity:1;font-family:Book Antiqua;stroke-width:2;stroke-miterlimit:4;stroke-dasharray:none" />
    <path
       d="M 171.125,97.412067 C 171.17708,99.464155 171.70312,101.02145 172.70313,102.08394 C 173.70312,103.14644 175.01562,103.67769 176.64063,103.67769 C 177.36978,103.67769 178.09374,103.5579 178.8125,103.31832 C 179.53124,103.07873 180.24478,102.71936 180.95313,102.24019 L 181.21875,102.47457 L 180.71875,103.78707 C 179.85415,104.28707 178.96353,104.66207 178.04688,104.91207 C 177.1302,105.16207 176.18749,105.28707 175.21875,105.28707 C 173.10416,105.28707 171.39843,104.6178 170.10156,103.27925 C 168.80469,101.94072 168.15625,100.12561 168.15625,97.833942 C 168.15625,96.08395 168.52083,94.568327 169.25,93.287067 C 169.72916,92.443329 170.61458,91.66208 171.90625,90.943317 C 173.19791,90.224581 174.45312,89.865207 175.67188,89.865192 C 177.51561,89.865207 178.97655,90.406873 180.05469,91.490192 C 181.1328,92.573537 181.67186,94.089161 181.67188,96.037067 L 181.64063,96.958942 C 180.95311,97.125616 180.29686,97.234991 179.67188,97.287067 C 178.55728,97.370407 177.01041,97.412074 175.03125,97.412067 L 171.125,97.412067 z M 171.17188,96.240192 C 172.78645,96.313117 174.5677,96.349575 176.51563,96.349567 C 177.29686,96.349575 178.05207,96.313117 178.78125,96.240192 L 178.78125,95.365192 C 178.78124,94.448535 178.59895,93.578745 178.23438,92.755817 C 178.0052,92.245413 177.60416,91.820934 177.03125,91.482379 C 176.45832,91.143851 175.79687,90.97458 175.04688,90.974567 C 173.8802,90.97458 172.94791,91.401663 172.25,92.255817 C 171.55208,93.109995 171.1927,94.438119 171.17188,96.240192 L 171.17188,96.240192 z "
       style="font-size:32px;font-style:normal;font-variant:normal;font-weight:normal;font-stretch:normal;text-align:center;line-height:150%;writing-mode:lr-tb;text-anchor:middle;fill:none;fill-opacity:1;stroke:#dfdfdf;stroke-opacity:1;font-family:Book Antiqua;stroke-width:2;stroke-miterlimit:4;stroke-dasharray:none"
       id="path5079" />
  </g>
  <g
     inkscape:label="Capa 1"
     inkscape:groupmode="layer"
     id="layer1"
     style="display:inline"
     sodipodi:insensitive="true">
    <path
       style="font-size:32px;font-style:normal;font-variant:normal;font-weight:normal;font-stretch:normal;text-align:center;line-height:150%;writing-mode:lr-tb;text-anchor:middle;fill:#7eb3ee;fill-opacity:1;stroke:none;stroke-opacity:1;font-family:Book Antiqua"
       d="M 33.34375,55.990192 L 34.328125,55.990192 C 35.296872,55.990192 35.877601,55.755818 36.070313,55.287067 C 36.263017,54.818319 36.359371,52.573529 36.359375,48.552692 L 36.359375,43.255817 C 36.359371,39.089168 36.276038,36.792295 36.109375,36.365192 C 35.942705,35.938129 35.442705,35.724588 34.609375,35.724567 L 33.34375,35.724567 L 33.34375,34.740192 C 35.072914,34.81313 36.781246,34.849589 38.46875,34.849567 C 39.874993,34.849589 41.151033,34.81313 42.296875,34.740192 L 42.296875,35.724567 L 41.09375,35.724567 C 40.354159,35.724588 39.890617,35.813129 39.703125,35.990192 C 39.515618,36.167296 39.406243,36.615212 39.375,37.333942 C 39.32291,38.448543 39.296868,40.432916 39.296875,43.287067 L 39.296875,48.677692 C 39.296868,52.729779 39.38541,54.961548 39.5625,55.373004 C 39.739576,55.784464 40.307284,55.990192 41.265625,55.990192 L 42.296875,55.990192 L 42.296875,56.974567 C 41.015616,56.90165 39.619784,56.865192 38.109375,56.865192 C 36.348954,56.865192 34.760414,56.90165 33.34375,56.974567 L 33.34375,55.990192 z "
       id="path4997" />
    <path
       style="font-size:32px;font-style:normal;font-variant:normal;font-weight:normal;font-stretch:normal;text-align:center;line-height:150%;writing-mode:lr-tb;text-anchor:middle;fill:#7eb3ee;fill-opacity:1;stroke:none;stroke-opacity:1;font-family:Book Antiqua"
       d="M 49.21875,44.677692 L 51.3125,42.802692 C 51.645825,42.500623 51.999991,42.287081 52.375,42.162067 C 52.916657,41.974581 53.453115,41.880832 53.984375,41.880817 C 55.161446,41.880832 56.106758,42.091769 56.820313,42.513629 C 57.53384,42.935518 58.187485,43.69333 58.78125,44.787067 L 60.796875,42.943317 C 61.140607,42.630831 61.562482,42.391248 62.0625,42.224567 C 62.71873,41.995415 63.354147,41.880832 63.96875,41.880817 C 64.906228,41.880832 65.755186,42.099581 66.515625,42.537067 C 67.276018,42.97458 67.841121,43.542288 68.210938,44.240192 C 68.580704,44.93812 68.765599,45.886036 68.765625,47.083942 L 68.71875,53.193317 C 68.718724,54.557902 68.796849,55.362589 68.953125,55.607379 C 69.109349,55.852172 69.51039,55.990192 70.15625,56.021442 L 71.296875,56.068317 L 71.296875,56.974567 L 70.546875,56.927692 C 69.338516,56.865192 68.520808,56.833942 68.09375,56.833942 C 67.437476,56.833942 66.671852,56.880817 65.796875,56.974567 C 65.942686,55.068318 66.015602,52.839154 66.015625,50.287067 C 66.015602,48.130825 65.921852,46.71416 65.734375,46.037067 C 65.546853,45.359995 65.187478,44.828745 64.65625,44.443317 C 64.124979,44.057913 63.458313,43.865205 62.65625,43.865192 C 61.749981,43.865205 60.973941,44.107392 60.328125,44.591754 C 59.682275,45.076141 59.281234,45.656869 59.125,46.333942 C 59.020818,46.761035 58.968734,48.594367 58.96875,51.833942 C 58.968734,53.740195 58.984359,54.826131 59.015625,55.091754 C 59.046859,55.357381 59.132797,55.54488 59.273438,55.654254 C 59.414046,55.76363 59.864567,55.859984 60.625,55.943317 L 61.671875,56.068317 L 61.671875,56.974567 C 59.828108,56.880817 58.473943,56.833942 57.609375,56.833942 C 56.921861,56.833942 55.588529,56.880817 53.609375,56.974567 L 53.609375,56.068317 L 54.65625,56.068317 C 55.281238,56.068317 55.687488,55.979776 55.875,55.802692 C 56.062487,55.62561 56.171862,55.208943 56.203125,54.552692 C 56.286445,52.844362 56.328112,51.063114 56.328125,49.208942 C 56.328112,47.552701 56.216133,46.409473 55.992188,45.779254 C 55.768217,45.149057 55.388009,44.651662 54.851563,44.287067 C 54.315093,43.922496 53.671865,43.740205 52.921875,43.740192 C 52.119783,43.740205 51.390617,43.964163 50.734375,44.412067 C 50.078118,44.859995 49.630202,45.401661 49.390625,46.037067 C 49.234369,46.474577 49.156244,47.714159 49.15625,49.755817 C 49.156244,51.995405 49.177077,53.641236 49.21875,54.693317 C 49.239577,55.182902 49.317702,55.495401 49.453125,55.630817 C 49.588535,55.766234 50.036451,55.870401 50.796875,55.943317 L 51.875,56.068317 L 51.875,56.974567 C 50.572909,56.90165 49.343744,56.865192 48.1875,56.865192 C 46.874996,56.865192 45.447914,56.90165 43.90625,56.974567 L 43.90625,56.068317 L 45.09375,56.068317 C 45.770831,56.068317 46.17708,55.88863 46.3125,55.529254 C 46.447913,55.169881 46.515622,53.214154 46.515625,49.662067 C 46.515622,47.05791 46.499997,45.521453 46.46875,45.052692 C 46.437497,44.583954 46.348955,44.287079 46.203125,44.162067 C 46.057289,44.037079 45.614581,43.974579 44.875,43.974567 L 43.90625,43.974567 L 43.90625,43.115192 C 45.437498,42.906872 46.755205,42.620414 47.859375,42.255817 L 49,41.818317 C 49.187494,41.818332 49.281244,41.943332 49.28125,42.193317 L 49.25,42.755817 C 49.218744,43.328747 49.208327,43.969371 49.21875,44.677692 L 49.21875,44.677692 z "
       id="path4995" />
    <path
       id="path4993"
       style="font-size:32px;font-style:normal;font-variant:normal;font-weight:normal;font-stretch:normal;text-align:center;line-height:150%;writing-mode:lr-tb;text-anchor:middle;fill:#7eb3ee;fill-opacity:1;stroke:none;stroke-opacity:1;font-family:Book Antiqua"
       d="M 73.6875,46.099567 L 73.703125,45.052692 L 73.6875,43.974567 L 75.390625,43.005817 C 76.161454,42.568331 76.835932,42.266248 77.414063,42.099567 C 77.992181,41.932915 78.609368,41.849582 79.265625,41.849567 C 80.703116,41.849582 81.861969,42.172498 82.742188,42.818317 C 83.622384,43.464163 84.151029,44.287079 84.328125,45.287067 C 84.453112,46.037077 84.531237,47.896451 84.5625,50.865192 C 84.58332,53.667278 84.64582,55.214152 84.75,55.505817 C 84.854153,55.797484 85.11457,55.943318 85.53125,55.943317 L 86.75,55.943317 L 86.75,56.974567 C 85.562486,56.90165 84.734362,56.865192 84.265625,56.865192 C 83.682279,56.865192 82.90103,56.90165 81.921875,56.974567 L 81.9375,55.583942 C 81.93749,55.136027 81.932281,54.682902 81.921875,54.224567 L 78.6875,56.693317 C 78.395826,56.912067 78.109368,57.065712 77.828125,57.154254 C 77.546869,57.242795 77.156244,57.287066 76.65625,57.287067 C 75.312496,57.287066 74.286456,56.956337 73.578125,56.294879 C 72.86979,55.633422 72.515624,54.745402 72.515625,53.630817 C 72.515624,52.578738 72.768228,51.659468 73.273438,50.873004 C 73.778644,50.086553 74.497393,49.505824 75.429688,49.130817 C 76.361974,48.755825 78.526035,48.266242 81.921875,47.662067 C 81.901031,46.33916 81.609365,45.349578 81.046875,44.693317 C 80.338533,43.870413 79.328117,43.458955 78.015625,43.458942 C 77.515619,43.458955 77.046869,43.521455 76.609375,43.646442 C 76.17187,43.771455 75.765621,43.958955 75.390625,44.208942 C 75.088538,44.948537 74.812497,45.656869 74.5625,46.333942 L 73.6875,46.099567 z M 81.921875,48.583942 C 79.026034,49.208949 77.187494,49.794886 76.40625,50.341754 C 75.624996,50.888635 75.234371,51.734988 75.234375,52.880817 C 75.234371,53.651653 75.458329,54.26884 75.90625,54.732379 C 76.354162,55.195922 76.932286,55.427693 77.640625,55.427692 C 78.421868,55.427693 79.169263,55.208943 79.882813,54.771442 C 80.596345,54.333944 81.276032,53.682903 81.921875,52.818317 L 81.890625,49.349567 L 81.921875,48.583942 z " />
    <path
       id="path4989"
       style="font-size:32px;font-style:normal;font-variant:normal;font-weight:normal;font-stretch:normal;text-align:center;line-height:150%;writing-mode:lr-tb;text-anchor:middle;fill:#7eb3ee;fill-opacity:1;stroke:none;stroke-opacity:1;font-family:Book Antiqua"
       d="M 101.4375,44.771442 C 101.67707,45.43812 101.79686,45.984994 101.79688,46.412067 C 101.79686,47.339159 101.51561,48.232388 100.95313,49.091754 C 100.39061,49.951136 99.58853,50.643844 98.546875,51.169879 C 97.505198,51.695926 96.380199,51.958947 95.171875,51.958942 L 94.4375,51.943317 C 93.749994,52.453738 93.315098,52.833946 93.132813,53.083942 C 92.950515,53.333945 92.85937,53.578737 92.859375,53.818317 C 92.85937,54.214153 93.062494,54.526652 93.46875,54.755817 C 93.874994,54.984985 94.703118,55.099568 95.953125,55.099567 C 96.432283,55.099568 97.119782,55.083943 98.015625,55.052692 C 99.296863,55.00061 100.22395,54.974568 100.79688,54.974567 C 101.61978,54.974568 102.24999,55.107381 102.6875,55.373004 C 103.12498,55.63863 103.49998,56.102172 103.8125,56.763629 C 104.12498,57.425087 104.28123,58.172482 104.28125,59.005817 C 104.28123,60.17248 103.92707,61.289666 103.21875,62.357379 C 102.5104,63.425081 101.47915,64.281851 100.125,64.927692 C 98.770822,65.573516 97.213532,65.896433 95.453125,65.896442 C 93.307286,65.896433 91.656246,65.430287 90.5,64.498004 C 89.343748,63.565706 88.765624,62.417269 88.765625,61.052692 C 88.765624,60.208938 89.067707,59.354772 89.671875,58.490192 C 90.755205,57.979774 91.666662,57.464149 92.40625,56.943317 C 91.552079,56.662067 91.002601,56.404255 90.757813,56.169879 C 90.513018,55.935505 90.390622,55.636026 90.390625,55.271442 C 90.390622,54.833944 90.510414,54.401652 90.75,53.974567 C 90.885413,53.714153 91.229163,53.396445 91.78125,53.021442 L 93.296875,51.943317 C 92.04687,51.630822 91.14583,51.188114 90.59375,50.615192 C 89.864581,49.844365 89.499998,48.859991 89.5,47.662067 C 89.499998,46.609994 89.770831,45.651661 90.3125,44.787067 C 90.854163,43.922496 91.651037,43.240205 92.703125,42.740192 C 94.046868,42.10479 95.343742,41.787082 96.59375,41.787067 C 97.385407,41.787082 98.080719,41.891248 98.679688,42.099567 C 99.278634,42.307914 99.890613,42.662081 100.51563,43.162067 L 101.82813,43.162067 C 103.18228,43.16208 104.23436,43.120414 104.98438,43.037067 L 105.15625,43.365192 C 104.84373,43.813121 104.56769,44.281871 104.32813,44.771442 L 101.4375,44.771442 z M 99.0625,47.240192 C 99.062488,45.938119 98.729155,44.891245 98.0625,44.099567 C 97.395823,43.307913 96.557283,42.912081 95.546875,42.912067 C 94.546868,42.912081 93.742181,43.234997 93.132813,43.880817 C 92.523432,44.526662 92.218745,45.422495 92.21875,46.568317 C 92.218745,47.953742 92.549474,49.039679 93.210938,49.826129 C 93.872389,50.612594 94.703118,51.005822 95.703125,51.005817 C 96.703116,51.005822 97.513011,50.675094 98.132813,50.013629 C 98.752593,49.352178 99.062488,48.4277 99.0625,47.240192 L 99.0625,47.240192 z M 94.8125,57.193317 C 94.07291,57.193316 93.567702,57.27665 93.296875,57.443317 C 92.42187,58.005815 91.890621,58.45894 91.703125,58.802692 C 91.390621,59.344356 91.234371,60.026647 91.234375,60.849567 C 91.234371,61.984978 91.656246,62.922477 92.5,63.662067 C 93.343744,64.401642 94.515618,64.771434 96.015625,64.771442 C 97.171865,64.771434 98.187489,64.557892 99.0625,64.130817 C 99.937488,63.703726 100.61717,63.11779 101.10156,62.373004 C 101.58592,61.628208 101.82811,60.859979 101.82813,60.068317 C 101.82811,59.391231 101.65884,58.797481 101.32031,58.287067 C 100.98176,57.776649 100.57811,57.448524 100.10938,57.302692 C 99.869779,57.229775 99.322905,57.193316 98.46875,57.193317 L 94.8125,57.193317 z " />
    <path
       id="path4983"
       style="font-size:32px;font-style:normal;font-variant:normal;font-weight:normal;font-stretch:normal;text-align:center;line-height:150%;writing-mode:lr-tb;text-anchor:middle;fill:#7eb3ee;fill-opacity:1;stroke:none;stroke-opacity:1;font-family:Book Antiqua"
       d="M 109.125,49.412067 C 109.17708,51.464155 109.70312,53.021445 110.70313,54.083942 C 111.70312,55.146443 113.01562,55.677693 114.64063,55.677692 C 115.36978,55.677693 116.09374,55.557901 116.8125,55.318317 C 117.53124,55.078735 118.24478,54.71936 118.95313,54.240192 L 119.21875,54.474567 L 118.71875,55.787067 C 117.85415,56.287067 116.96353,56.662067 116.04688,56.912067 C 115.1302,57.162066 114.18749,57.287066 113.21875,57.287067 C 111.10416,57.287066 109.39843,56.617796 108.10156,55.279254 C 106.80469,53.940715 106.15625,52.125613 106.15625,49.833942 C 106.15625,48.08395 106.52083,46.568327 107.25,45.287067 C 107.72916,44.443329 108.61458,43.66208 109.90625,42.943317 C 111.19791,42.224581 112.45312,41.865207 113.67188,41.865192 C 115.51561,41.865207 116.97655,42.406873 118.05469,43.490192 C 119.1328,44.573537 119.67186,46.089161 119.67188,48.037067 L 119.64063,48.958942 C 118.95311,49.125616 118.29686,49.234991 117.67188,49.287067 C 116.55728,49.370407 115.01041,49.412074 113.03125,49.412067 L 109.125,49.412067 z M 109.17188,48.240192 C 110.78645,48.313117 112.5677,48.349575 114.51563,48.349567 C 115.29686,48.349575 116.05207,48.313117 116.78125,48.240192 L 116.78125,47.365192 C 116.78124,46.448535 116.59895,45.578745 116.23438,44.755817 C 116.0052,44.245413 115.60416,43.820934 115.03125,43.482379 C 114.45832,43.143851 113.79687,42.97458 113.04688,42.974567 C 111.8802,42.97458 110.94791,43.401663 110.25,44.255817 C 109.55208,45.109995 109.1927,46.438119 109.17188,48.240192 L 109.17188,48.240192 z " />
    <path
       style="font-size:32px;font-style:normal;font-variant:normal;font-weight:normal;font-stretch:normal;text-align:center;line-height:150%;writing-mode:lr-tb;text-anchor:middle;fill:#7eb3ee;fill-opacity:1;stroke:none;stroke-opacity:1;font-family:Book Antiqua"
       d="M 126.23438,44.849567 L 128.59375,42.755817 C 128.87499,42.505831 129.17187,42.323539 129.48438,42.208942 C 130.17187,41.97979 130.85936,41.865207 131.54688,41.865192 C 132.66145,41.865207 133.62499,42.091769 134.4375,42.544879 C 135.24999,42.998018 135.83332,43.586559 136.1875,44.310504 C 136.54165,45.034474 136.71873,46.167286 136.71875,47.708942 L 136.64063,52.630817 C 136.64061,54.328736 136.71353,55.307901 136.85938,55.568317 C 137.05728,55.901651 137.44269,56.068317 138.01563,56.068317 L 139.14063,56.068317 L 139.14063,56.974567 C 138.02602,56.90165 137.06248,56.865192 136.25,56.865192 C 135.45832,56.865192 134.60936,56.90165 133.70313,56.974567 C 133.90103,54.943319 133.99999,52.19853 134,48.740192 C 133.99999,47.344368 133.87759,46.354785 133.63281,45.771442 C 133.38801,45.18812 132.97655,44.71937 132.39844,44.365192 C 131.8203,44.011038 131.12499,43.833955 130.3125,43.833942 C 129.30207,43.833955 128.4453,44.089163 127.74219,44.599567 C 127.03906,45.109995 126.60416,45.672494 126.4375,46.287067 C 126.33333,46.693327 126.28124,47.755826 126.28125,49.474567 C 126.28124,51.380822 126.29687,53.151654 126.32813,54.787067 C 126.33854,55.276652 126.41145,55.583943 126.54688,55.708942 C 126.80729,55.948526 127.23437,56.068317 127.82813,56.068317 L 128.9375,56.068317 L 128.9375,56.974567 C 127.17708,56.90165 125.77604,56.865192 124.73438,56.865192 C 123.63021,56.865192 122.375,56.90165 120.96875,56.974567 L 120.96875,56.068317 L 122.09375,56.068317 C 122.86458,56.068317 123.3151,55.88863 123.44531,55.529254 C 123.57552,55.169881 123.64062,53.00582 123.64063,49.037067 C 123.64062,47.255826 123.61979,45.859994 123.57813,44.849567 C 123.55729,44.516246 123.47396,44.287079 123.32813,44.162067 C 123.18229,44.037079 122.77083,43.974579 122.09375,43.974567 L 120.96875,43.974567 L 120.96875,43.083942 C 121.86458,42.979789 122.66666,42.839164 123.375,42.662067 C 124.08333,42.484998 124.8802,42.214165 125.76563,41.849567 C 125.85937,41.807915 125.94791,41.787082 126.03125,41.787067 C 126.19791,41.787082 126.28124,41.906873 126.28125,42.146442 L 126.26563,42.740192 L 126.23438,44.849567 z "
       id="path4979" />
    <path
       style="font-size:32px;font-style:normal;font-variant:normal;font-weight:normal;font-stretch:normal;text-align:center;line-height:150%;writing-mode:lr-tb;text-anchor:middle;fill:#7eb3ee;fill-opacity:1;stroke:none;stroke-opacity:1;font-family:Book Antiqua"
       d="M 152.85938,44.849567 L 155.21875,42.755817 C 155.49999,42.505831 155.79687,42.323539 156.10938,42.208942 C 156.79687,41.97979 157.48436,41.865207 158.17188,41.865192 C 159.28645,41.865207 160.24999,42.091769 161.0625,42.544879 C 161.87499,42.998018 162.45832,43.586559 162.8125,44.310504 C 163.16665,45.034474 163.34373,46.167286 163.34375,47.708942 L 163.26563,52.630817 C 163.26561,54.328736 163.33853,55.307901 163.48438,55.568317 C 163.68228,55.901651 164.06769,56.068317 164.64063,56.068317 L 165.76563,56.068317 L 165.76563,56.974567 C 164.65102,56.90165 163.68748,56.865192 162.875,56.865192 C 162.08332,56.865192 161.23436,56.90165 160.32813,56.974567 C 160.52603,54.943319 160.62499,52.19853 160.625,48.740192 C 160.62499,47.344368 160.50259,46.354785 160.25781,45.771442 C 160.01301,45.18812 159.60155,44.71937 159.02344,44.365192 C 158.4453,44.011038 157.74999,43.833955 156.9375,43.833942 C 155.92707,43.833955 155.0703,44.089163 154.36719,44.599567 C 153.66406,45.109995 153.22916,45.672494 153.0625,46.287067 C 152.95833,46.693327 152.90624,47.755826 152.90625,49.474567 C 152.90624,51.380822 152.92187,53.151654 152.95313,54.787067 C 152.96354,55.276652 153.03645,55.583943 153.17188,55.708942 C 153.43229,55.948526 153.85937,56.068317 154.45313,56.068317 L 155.5625,56.068317 L 155.5625,56.974567 C 153.80208,56.90165 152.40104,56.865192 151.35938,56.865192 C 150.25521,56.865192 149,56.90165 147.59375,56.974567 L 147.59375,56.068317 L 148.71875,56.068317 C 149.48958,56.068317 149.9401,55.88863 150.07031,55.529254 C 150.20052,55.169881 150.26562,53.00582 150.26563,49.037067 C 150.26562,47.255826 150.24479,45.859994 150.20313,44.849567 C 150.18229,44.516246 150.09896,44.287079 149.95313,44.162067 C 149.80729,44.037079 149.39583,43.974579 148.71875,43.974567 L 147.59375,43.974567 L 147.59375,43.083942 C 148.48958,42.979789 149.29166,42.839164 150,42.662067 C 150.70833,42.484998 151.5052,42.214165 152.39063,41.849567 C 152.48437,41.807915 152.57291,41.787082 152.65625,41.787067 C 152.82291,41.787082 152.90624,41.906873 152.90625,42.146442 L 152.89063,42.740192 L 152.85938,44.849567 z "
       id="path4977" />
    <path
       id="path4975"
       style="font-size:32px;font-style:normal;font-variant:normal;font-weight:normal;font-stretch:normal;text-align:center;line-height:150%;writing-mode:lr-tb;text-anchor:middle;fill:#7eb3ee;fill-opacity:1;stroke:none;stroke-opacity:1;font-family:Book Antiqua"
       d="M 166.95313,49.474567 C 166.95312,48.037075 167.28646,46.737598 167.95313,45.576129 C 168.61979,44.414683 169.55468,43.50583 170.75781,42.849567 C 171.96093,42.193331 173.32812,41.865207 174.85938,41.865192 C 177.07811,41.865207 178.85415,42.521456 180.1875,43.833942 C 181.52082,45.146453 182.18748,46.896452 182.1875,49.083942 C 182.18748,51.66728 181.31769,53.719361 179.57813,55.240192 C 178.02603,56.604775 176.16666,57.287066 174,57.287067 C 171.91666,57.287066 170.22135,56.586546 168.91406,55.185504 C 167.60677,53.784466 166.95312,51.880822 166.95313,49.474567 L 166.95313,49.474567 z M 169.89063,48.365192 C 169.89062,50.511031 170.33072,52.346967 171.21094,53.873004 C 172.09114,55.399047 173.35937,56.162067 175.01563,56.162067 C 176.27603,56.162067 177.29426,55.682901 178.07031,54.724567 C 178.84634,53.766236 179.23436,52.313113 179.23438,50.365192 C 179.23436,48.792283 179.0052,47.430305 178.54688,46.279254 C 178.08853,45.128224 177.48436,44.289683 176.73438,43.763629 C 175.98436,43.237601 175.14582,42.97458 174.21875,42.974567 C 173.39583,42.97458 172.65364,43.182914 171.99219,43.599567 C 171.33072,44.016246 170.84374,44.573537 170.53125,45.271442 C 170.10416,46.219369 169.89062,47.250618 169.89063,48.365192 L 169.89063,48.365192 z " />
    <path
       id="path4971"
       style="font-size:32px;font-style:normal;font-variant:normal;font-weight:normal;font-stretch:normal;text-align:center;line-height:150%;writing-mode:lr-tb;text-anchor:middle;fill:#7eb3ee;fill-opacity:1;stroke:none;stroke-opacity:1;font-family:Book Antiqua"
       d="M 46.484375,90.818317 L 46.484375,85.162067 C 46.484362,84.505837 46.411445,84.094379 46.265625,83.927692 C 46.119779,83.761046 45.786446,83.677713 45.265625,83.677692 L 43.921875,83.677692 L 43.921875,82.740192 C 45.776029,82.615214 47.505194,82.229798 49.109375,81.583942 L 49.390625,81.771442 C 49.317692,82.833964 49.255192,84.115212 49.203125,85.615192 L 49.140625,89.771442 L 49.109375,91.115192 L 49.109375,100.44332 C 49.109359,102.1829 49.161442,103.15165 49.265625,103.34957 C 49.421859,103.63082 49.85415,103.81832 50.5625,103.91207 L 51.671875,104.05269 L 51.671875,104.97457 C 50.390608,104.88082 49.260401,104.83394 48.28125,104.83394 C 48.104152,104.83394 47.447902,104.88082 46.3125,104.97457 C 46.385403,104.26623 46.442695,103.26103 46.484375,101.95894 C 45.598946,102.64644 44.468739,103.60998 43.09375,104.84957 C 42.208324,105.14123 41.427075,105.28707 40.75,105.28707 C 38.989577,105.28707 37.515621,104.62561 36.328125,103.30269 C 35.140623,101.97978 34.546874,100.20895 34.546875,97.990192 C 34.546874,96.604783 34.77604,95.422493 35.234375,94.443317 C 35.692706,93.464161 36.23958,92.753225 36.875,92.310504 C 37.510412,91.867809 38.499995,91.307913 39.84375,90.630817 C 40.874992,90.120415 41.828116,89.865207 42.703125,89.865192 C 43.296865,89.865207 43.908843,89.943332 44.539063,90.099567 C 45.169259,90.255831 45.817696,90.495414 46.484375,90.818317 L 46.484375,90.818317 z M 46.484375,93.505817 C 45.765612,92.734995 45.018217,92.156871 44.242188,91.771442 C 43.466136,91.386038 42.65624,91.19333 41.8125,91.193317 C 40.447909,91.19333 39.348952,91.690726 38.515625,92.685504 C 37.682287,93.680307 37.265621,95.136035 37.265625,97.052692 C 37.265621,99.000614 37.742183,100.52926 38.695313,101.63863 C 39.648431,102.74801 40.807284,103.30269 42.171875,103.30269 C 43.005198,103.30269 43.770823,103.07092 44.46875,102.60738 C 45.166655,102.14384 45.677071,101.54228 46,100.80269 C 46.322903,100.06311 46.484362,98.901656 46.484375,97.318317 L 46.484375,93.505817 z " />
    <path
       style="font-size:32px;font-style:normal;font-variant:normal;font-weight:normal;font-stretch:normal;text-align:center;line-height:150%;writing-mode:lr-tb;text-anchor:middle;fill:#7eb3ee;fill-opacity:1;stroke:none;stroke-opacity:1;font-family:Book Antiqua"
       d="M 57.375,82.880817 C 57.854162,82.880839 58.265619,83.055318 58.609375,83.404254 C 58.953119,83.753234 59.124994,84.172504 59.125,84.662067 C 59.124994,85.15167 58.953119,85.568336 58.609375,85.912067 C 58.265619,86.255835 57.854162,86.42771 57.375,86.427692 C 56.885412,86.42771 56.468746,86.255835 56.125,85.912067 C 55.781247,85.568336 55.609372,85.15167 55.609375,84.662067 C 55.609372,84.172504 55.781247,83.753234 56.125,83.404254 C 56.468746,83.055318 56.885412,82.880839 57.375,82.880817 L 57.375,82.880817 z "
       id="path4967" />
    <path
       style="font-size:32px;font-style:normal;font-variant:normal;font-weight:normal;font-stretch:normal;text-align:center;line-height:150%;writing-mode:lr-tb;text-anchor:middle;fill:#7eb3ee;fill-opacity:1;stroke:none;stroke-opacity:1;font-family:Book Antiqua"
       d="M 58.625,89.802692 L 59,90.037067 C 58.927077,90.818331 58.880202,91.677705 58.859375,92.615192 C 58.786452,95.656867 58.749994,97.901657 58.75,99.349567 C 58.749994,100.70374 58.796869,101.85999 58.890625,102.81832 C 58.932285,103.19332 59.031244,103.45373 59.1875,103.59957 C 59.343743,103.7454 59.718743,103.85478 60.3125,103.92769 L 61.375,104.06832 L 61.375,104.97457 C 59.85416,104.90165 58.468744,104.86519 57.21875,104.86519 C 55.98958,104.86519 54.749998,104.90165 53.5,104.97457 L 53.5,104.06832 L 54.84375,103.92769 C 55.364581,103.88603 55.684893,103.78967 55.804688,103.63863 C 55.924476,103.48759 55.999997,102.98498 56.03125,102.13082 C 56.08333,100.8079 56.109372,98.984989 56.109375,96.662067 C 56.109372,95.047493 56.08333,93.802703 56.03125,92.927692 C 56.010413,92.604787 55.919268,92.375621 55.757813,92.240192 C 55.596351,92.104788 55.234372,92.037079 54.671875,92.037067 L 53.5,92.037067 L 53.5,91.115192 C 54.770831,90.927706 55.705726,90.755831 56.304688,90.599567 C 56.903642,90.443331 57.677078,90.177706 58.625,89.802692 L 58.625,89.802692 z "
       id="path4965" />
    <path
       style="font-size:32px;font-style:normal;font-variant:normal;font-weight:normal;font-stretch:normal;text-align:center;line-height:150%;writing-mode:lr-tb;text-anchor:middle;fill:#7eb3ee;fill-opacity:1;stroke:none;stroke-opacity:1;font-family:Book Antiqua"
       d="M 64.390625,100.19332 L 64.390625,101.20894 C 64.390623,102.02144 64.463539,102.52665 64.609375,102.72457 C 64.880205,103.0579 65.408851,103.38082 66.195313,103.69332 C 66.981766,104.00582 67.791661,104.16207 68.625,104.16207 C 69.697909,104.16207 70.572908,103.87301 71.25,103.29488 C 71.927073,102.71676 72.265615,102.02665 72.265625,101.22457 C 72.265615,100.58915 72.067698,100.07874 71.671875,99.693317 C 71.276032,99.307905 70.520825,99.000614 69.40625,98.771442 C 67.333328,98.354781 65.963538,97.990198 65.296875,97.677692 C 64.630206,97.365199 64.130206,96.948533 63.796875,96.427692 C 63.46354,95.906867 63.296874,95.27666 63.296875,94.537067 C 63.296874,93.151662 63.799477,92.026663 64.804688,91.162067 C 65.809892,90.297498 67.23437,89.865207 69.078125,89.865192 C 70.53645,89.865207 71.989573,90.156873 73.4375,90.740192 C 73.354155,91.448538 73.286447,92.636037 73.234375,94.302692 L 72.3125,94.302692 C 72.291656,93.386036 72.192698,92.78187 72.015625,92.490192 C 71.776032,92.104788 71.338532,91.75583 70.703125,91.443317 C 70.0677,91.13083 69.390618,90.97458 68.671875,90.974567 C 67.723953,90.97458 66.966141,91.216768 66.398438,91.701129 C 65.830725,92.185517 65.546871,92.792287 65.546875,93.521442 C 65.546871,94.219369 65.77083,94.74541 66.21875,95.099567 C 66.666662,95.464159 67.906244,95.849576 69.9375,96.255817 C 71.437491,96.557908 72.427073,96.839158 72.90625,97.099567 C 73.385405,97.359991 73.770822,97.755824 74.0625,98.287067 C 74.354154,98.818323 74.499988,99.427697 74.5,100.11519 C 74.499988,101.52145 73.898426,102.73498 72.695313,103.75582 C 71.492178,104.77665 69.885409,105.28707 67.875,105.28707 C 66.593745,105.28707 65.156247,105.08394 63.5625,104.67769 C 63.281249,104.60478 63.140624,104.4954 63.140625,104.34957 L 63.1875,104.13082 C 63.229165,103.97457 63.265624,103.69853 63.296875,103.30269 C 63.390624,102.29228 63.437499,101.50582 63.4375,100.94332 L 63.421875,100.19332 L 64.390625,100.19332 z "
       id="path4963" />
    <path
       id="path4961"
       style="font-size:32px;font-style:normal;font-variant:normal;font-weight:normal;font-stretch:normal;text-align:center;line-height:150%;writing-mode:lr-tb;text-anchor:middle;fill:#7eb3ee;fill-opacity:1;stroke:none;stroke-opacity:1;font-family:Book Antiqua"
       d="M 81.625,93.021442 L 83.8125,91.083942 C 84.364575,90.594373 84.833324,90.287081 85.21875,90.162067 C 85.833323,89.964165 86.552072,89.865207 87.375,89.865192 C 89.229153,89.865207 90.729152,90.438123 91.875,91.583942 C 93.020816,92.729787 93.593732,94.208952 93.59375,96.021442 C 93.593732,96.9277 93.463524,97.820928 93.203125,98.701129 C 92.942691,99.581343 92.624983,100.30009 92.25,100.85738 C 91.874984,101.41467 91.453109,101.88082 90.984375,102.25582 C 90.82811,102.38082 90.192694,102.79228 89.078125,103.49019 L 88.453125,103.94332 C 87.661446,104.4954 87.023426,104.85738 86.539063,105.02925 C 86.054677,105.20113 85.49999,105.28707 84.875,105.28707 C 84.385408,105.28707 83.869783,105.21675 83.328125,105.07613 C 82.786451,104.9355 82.218743,104.72978 81.625,104.45894 L 81.625,106.66207 C 81.624994,108.92248 81.656244,110.51623 81.71875,111.44332 C 81.749994,111.84956 81.880202,112.14383 82.109375,112.32613 C 82.338535,112.50841 82.822909,112.59956 83.5625,112.59957 L 84.40625,112.59957 L 84.40625,113.47457 C 82.437493,113.41206 80.994786,113.38081 80.078125,113.38082 C 79.067705,113.38081 77.781248,113.41206 76.21875,113.47457 L 76.21875,112.59957 L 77.359375,112.59957 C 78.161456,112.59956 78.635414,112.42768 78.78125,112.08394 C 78.92708,111.74018 78.999997,109.90685 79,106.58394 L 79,96.990192 C 78.999997,95.323534 78.95833,94.037077 78.875,93.130817 C 78.83333,92.693329 78.731768,92.404267 78.570313,92.263629 C 78.408851,92.123017 78.031248,92.052704 77.4375,92.052692 L 76.21875,92.052692 L 76.21875,91.083942 C 77.666665,90.927706 79.088538,90.630831 80.484375,90.193317 L 81.4375,89.818317 C 81.604161,89.818332 81.687494,89.964165 81.6875,90.255817 L 81.640625,91.912067 L 81.625,93.021442 z M 81.625,101.61519 C 82.29166,102.36519 82.958326,102.89644 83.625,103.20894 C 84.291658,103.52144 85.010407,103.67769 85.78125,103.67769 C 87.427071,103.67769 88.687487,103.0579 89.5625,101.81832 C 90.437485,100.57874 90.874985,99.104781 90.875,97.396442 C 90.874985,96.250617 90.674464,95.268847 90.273438,94.451129 C 89.872382,93.633432 89.286445,92.992808 88.515625,92.529254 C 87.744779,92.065725 86.916655,91.833955 86.03125,91.833942 C 85.40624,91.833955 84.794262,91.958955 84.195313,92.208942 C 83.596346,92.458954 83.072909,92.805308 82.625,93.248004 C 82.177077,93.690724 81.890619,94.099577 81.765625,94.474567 C 81.671869,94.755827 81.624994,95.500618 81.625,96.708942 L 81.625,101.61519 z " />
    <path
       id="path4957"
       style="font-size:32px;font-style:normal;font-variant:normal;font-weight:normal;font-stretch:normal;text-align:center;line-height:150%;writing-mode:lr-tb;text-anchor:middle;fill:#7eb3ee;fill-opacity:1;stroke:none;stroke-opacity:1;font-family:Book Antiqua"
       d="M 95.953125,97.474567 C 95.953124,96.037075 96.286457,94.737598 96.953125,93.576129 C 97.619789,92.414683 98.554684,91.50583 99.757813,90.849567 C 100.96093,90.193331 102.32812,89.865207 103.85938,89.865192 C 106.07811,89.865207 107.85415,90.521456 109.1875,91.833942 C 110.52082,93.146453 111.18748,94.896452 111.1875,97.083942 C 111.18748,99.66728 110.31769,101.71936 108.57813,103.24019 C 107.02603,104.60478 105.16666,105.28707 103,105.28707 C 100.91666,105.28707 99.22135,104.58655 97.914063,103.1855 C 96.606769,101.78447 95.953124,99.880822 95.953125,97.474567 L 95.953125,97.474567 z M 98.890625,96.365192 C 98.890621,98.511031 99.330725,100.34697 100.21094,101.873 C 101.09114,103.39905 102.35937,104.16207 104.01563,104.16207 C 105.27603,104.16207 106.29426,103.6829 107.07031,102.72457 C 107.84634,101.76624 108.23436,100.31311 108.23438,98.365192 C 108.23436,96.792283 108.0052,95.430305 107.54688,94.279254 C 107.08853,93.128224 106.48436,92.289683 105.73438,91.763629 C 104.98436,91.237601 104.14582,90.97458 103.21875,90.974567 C 102.39583,90.97458 101.65364,91.182914 100.99219,91.599567 C 100.33072,92.016246 99.843745,92.573537 99.53125,93.271442 C 99.104162,94.219369 98.890621,95.250618 98.890625,96.365192 L 98.890625,96.365192 z " />
    <path
       style="font-size:32px;font-style:normal;font-variant:normal;font-weight:normal;font-stretch:normal;text-align:center;line-height:150%;writing-mode:lr-tb;text-anchor:middle;fill:#7eb3ee;fill-opacity:1;stroke:none;stroke-opacity:1;font-family:Book Antiqua"
       d="M 117.98438,92.849567 L 120.34375,90.755817 C 120.62499,90.505831 120.92187,90.323539 121.23438,90.208942 C 121.92187,89.97979 122.60936,89.865207 123.29688,89.865192 C 124.41145,89.865207 125.37499,90.091769 126.1875,90.544879 C 126.99999,90.998018 127.58332,91.586559 127.9375,92.310504 C 128.29165,93.034474 128.46873,94.167286 128.46875,95.708942 L 128.39063,100.63082 C 128.39061,102.32874 128.46353,103.3079 128.60938,103.56832 C 128.80728,103.90165 129.19269,104.06832 129.76563,104.06832 L 130.89063,104.06832 L 130.89063,104.97457 C 129.77602,104.90165 128.81248,104.86519 128,104.86519 C 127.20832,104.86519 126.35936,104.90165 125.45313,104.97457 C 125.65103,102.94332 125.74999,100.19853 125.75,96.740192 C 125.74999,95.344368 125.62759,94.354785 125.38281,93.771442 C 125.13801,93.18812 124.72655,92.71937 124.14844,92.365192 C 123.5703,92.011038 122.87499,91.833955 122.0625,91.833942 C 121.05207,91.833955 120.1953,92.089163 119.49219,92.599567 C 118.78906,93.109995 118.35416,93.672494 118.1875,94.287067 C 118.08333,94.693327 118.03124,95.755826 118.03125,97.474567 C 118.03124,99.380822 118.04687,101.15165 118.07813,102.78707 C 118.08854,103.27665 118.16145,103.58394 118.29688,103.70894 C 118.55729,103.94853 118.98437,104.06832 119.57813,104.06832 L 120.6875,104.06832 L 120.6875,104.97457 C 118.92708,104.90165 117.52604,104.86519 116.48438,104.86519 C 115.38021,104.86519 114.125,104.90165 112.71875,104.97457 L 112.71875,104.06832 L 113.84375,104.06832 C 114.61458,104.06832 115.0651,103.88863 115.19531,103.52925 C 115.32552,103.16988 115.39062,101.00582 115.39063,97.037067 C 115.39062,95.255826 115.36979,93.859994 115.32813,92.849567 C 115.30729,92.516246 115.22396,92.287079 115.07813,92.162067 C 114.93229,92.037079 114.52083,91.974579 113.84375,91.974567 L 112.71875,91.974567 L 112.71875,91.083942 C 113.61458,90.979789 114.41666,90.839164 115.125,90.662067 C 115.83333,90.484998 116.6302,90.214165 117.51563,89.849567 C 117.60937,89.807915 117.69791,89.787082 117.78125,89.787067 C 117.94791,89.787082 118.03124,89.906873 118.03125,90.146442 L 118.01563,90.740192 L 117.98438,92.849567 z "
       id="path4953" />
    <path
       style="font-size:32px;font-style:normal;font-variant:normal;font-weight:normal;font-stretch:normal;text-align:center;line-height:150%;writing-mode:lr-tb;text-anchor:middle;fill:#7eb3ee;fill-opacity:1;stroke:none;stroke-opacity:1;font-family:Book Antiqua"
       d="M 135.625,82.880817 C 136.10416,82.880839 136.51562,83.055318 136.85938,83.404254 C 137.20312,83.753234 137.37499,84.172504 137.375,84.662067 C 137.37499,85.15167 137.20312,85.568336 136.85938,85.912067 C 136.51562,86.255835 136.10416,86.42771 135.625,86.427692 C 135.13541,86.42771 134.71875,86.255835 134.375,85.912067 C 134.03125,85.568336 133.85937,85.15167 133.85938,84.662067 C 133.85937,84.172504 134.03125,83.753234 134.375,83.404254 C 134.71875,83.055318 135.13541,82.880839 135.625,82.880817 L 135.625,82.880817 z "
       id="path4951" />
    <path
       style="font-size:32px;font-style:normal;font-variant:normal;font-weight:normal;font-stretch:normal;text-align:center;line-height:150%;writing-mode:lr-tb;text-anchor:middle;fill:#7eb3ee;fill-opacity:1;stroke:none;stroke-opacity:1;font-family:Book Antiqua"
       d="M 136.875,89.802692 L 137.25,90.037067 C 137.17708,90.818331 137.1302,91.677705 137.10938,92.615192 C 137.03645,95.656867 136.99999,97.901657 137,99.349567 C 136.99999,100.70374 137.04687,101.85999 137.14063,102.81832 C 137.18229,103.19332 137.28124,103.45373 137.4375,103.59957 C 137.59374,103.7454 137.96874,103.85478 138.5625,103.92769 L 139.625,104.06832 L 139.625,104.97457 C 138.10416,104.90165 136.71874,104.86519 135.46875,104.86519 C 134.23958,104.86519 133,104.90165 131.75,104.97457 L 131.75,104.06832 L 133.09375,103.92769 C 133.61458,103.88603 133.93489,103.78967 134.05469,103.63863 C 134.17448,103.48759 134.25,102.98498 134.28125,102.13082 C 134.33333,100.8079 134.35937,98.984989 134.35938,96.662067 C 134.35937,95.047493 134.33333,93.802703 134.28125,92.927692 C 134.26041,92.604787 134.16927,92.375621 134.00781,92.240192 C 133.84635,92.104788 133.48437,92.037079 132.92188,92.037067 L 131.75,92.037067 L 131.75,91.115192 C 133.02083,90.927706 133.95573,90.755831 134.55469,90.599567 C 135.15364,90.443331 135.92708,90.177706 136.875,89.802692 L 136.875,89.802692 z "
       id="path4949" />
    <path
       id="path4947"
       style="font-size:32px;font-style:normal;font-variant:normal;font-weight:normal;font-stretch:normal;text-align:center;line-height:150%;writing-mode:lr-tb;text-anchor:middle;fill:#7eb3ee;fill-opacity:1;stroke:none;stroke-opacity:1;font-family:Book Antiqua"
       d="M 140.48438,83.646442 L 140.48438,82.771442 C 141.39062,82.677714 142.32812,82.526672 143.29688,82.318317 C 143.96354,82.182923 144.67187,81.969381 145.42188,81.677692 C 145.53645,81.625632 145.63541,81.59959 145.71875,81.599567 C 145.93749,81.59959 146.04687,81.797506 146.04688,82.193317 L 145.96875,82.974567 C 145.89583,83.568338 145.85416,84.011046 145.84375,84.302692 C 145.81249,85.646461 145.79687,87.479792 145.79688,89.802692 L 145.79688,93.115192 L 147.70313,91.193317 C 148.10937,90.797497 148.64322,90.477185 149.30469,90.232379 C 149.96614,89.987602 150.67186,89.865207 151.42188,89.865192 C 153.09895,89.865207 154.47915,90.443331 155.5625,91.599567 C 156.64582,92.755829 157.18748,94.292286 157.1875,96.208942 C 157.18748,97.261033 156.99738,98.284469 156.61719,99.279254 C 156.23696,100.27405 155.77603,101.07874 155.23438,101.69332 C 154.98436,101.98499 154.28905,102.54488 153.14844,103.373 C 152.0078,104.20113 151.27082,104.69332 150.9375,104.84957 C 150.31249,105.14123 149.5677,105.28707 148.70313,105.28707 C 147.92187,105.28707 147.22135,105.1829 146.60156,104.97457 C 145.98177,104.76623 145.33333,104.40686 144.65625,103.89644 L 143.40625,105.05269 L 142.875,104.84957 C 143.07291,103.2454 143.17187,101.5579 143.17188,99.787067 L 143.17188,89.865192 C 143.17187,88.333958 143.125,86.766251 143.03125,85.162067 C 142.98958,84.422504 142.90104,83.985004 142.76563,83.849567 C 142.63021,83.714171 142.32291,83.646463 141.84375,83.646442 L 140.48438,83.646442 z M 145.79688,99.880817 C 145.79687,101.00582 145.83854,101.65165 145.92188,101.81832 C 146.08854,102.16207 146.53906,102.5579 147.27344,103.00582 C 148.0078,103.45373 148.81249,103.67769 149.6875,103.67769 C 151.20832,103.67769 152.3854,103.06832 153.21875,101.84957 C 154.05207,100.63082 154.46874,99.151656 154.46875,97.412067 C 154.46874,95.599576 154.06509,94.216765 153.25781,93.263629 C 152.45051,92.310517 151.36457,91.833955 150,91.833942 C 149.09374,91.833955 148.26301,92.094371 147.50781,92.615192 C 146.7526,93.136037 146.23437,93.745411 145.95313,94.443317 C 145.84895,94.71416 145.79687,95.339159 145.79688,96.318317 L 145.79688,99.880817 z " />
    <path
       style="font-size:32px;font-style:normal;font-variant:normal;font-weight:normal;font-stretch:normal;text-align:center;line-height:150%;writing-mode:lr-tb;text-anchor:middle;fill:#7eb3ee;fill-opacity:1;stroke:none;stroke-opacity:1;font-family:Book Antiqua"
       d="M 164.17188,81.771442 C 163.99479,84.823545 163.90624,87.583959 163.90625,90.052692 L 163.90625,98.083942 C 163.90624,101.27145 163.97395,103.07873 164.10938,103.50582 C 164.18229,103.72457 164.52604,103.86519 165.14063,103.92769 L 166.46875,104.06832 L 166.46875,104.97457 C 165.33333,104.90165 164.24999,104.86519 163.21875,104.86519 C 162.07291,104.86519 160.57291,104.90165 158.71875,104.97457 L 158.71875,104.06832 L 160.0625,103.95894 C 160.65625,103.90686 160.99479,103.75582 161.07813,103.50582 C 161.21354,103.09957 161.28125,101.25061 161.28125,97.958942 L 161.28125,89.974567 L 161.26563,86.974567 L 161.21875,84.927692 C 161.21875,84.417295 161.16146,84.104796 161.04688,83.990192 C 160.88021,83.823546 160.53125,83.740213 160,83.740192 L 158.71875,83.740192 L 158.71875,82.802692 C 160.88541,82.604797 162.61458,82.198548 163.90625,81.583942 L 164.17188,81.771442 z "
       id="path4943" />
    <path
       id="path4941"
       style="font-size:32px;font-style:normal;font-variant:normal;font-weight:normal;font-stretch:normal;text-align:center;line-height:150%;writing-mode:lr-tb;text-anchor:middle;fill:#7eb3ee;fill-opacity:1;stroke:none;stroke-opacity:1;font-family:Book Antiqua"
       d="M 171.125,97.412067 C 171.17708,99.464155 171.70312,101.02145 172.70313,102.08394 C 173.70312,103.14644 175.01562,103.67769 176.64063,103.67769 C 177.36978,103.67769 178.09374,103.5579 178.8125,103.31832 C 179.53124,103.07873 180.24478,102.71936 180.95313,102.24019 L 181.21875,102.47457 L 180.71875,103.78707 C 179.85415,104.28707 178.96353,104.66207 178.04688,104.91207 C 177.1302,105.16207 176.18749,105.28707 175.21875,105.28707 C 173.10416,105.28707 171.39843,104.6178 170.10156,103.27925 C 168.80469,101.94072 168.15625,100.12561 168.15625,97.833942 C 168.15625,96.08395 168.52083,94.568327 169.25,93.287067 C 169.72916,92.443329 170.61458,91.66208 171.90625,90.943317 C 173.19791,90.224581 174.45312,89.865207 175.67188,89.865192 C 177.51561,89.865207 178.97655,90.406873 180.05469,91.490192 C 181.1328,92.573537 181.67186,94.089161 181.67188,96.037067 L 181.64063,96.958942 C 180.95311,97.125616 180.29686,97.234991 179.67188,97.287067 C 178.55728,97.370407 177.01041,97.412074 175.03125,97.412067 L 171.125,97.412067 z M 171.17188,96.240192 C 172.78645,96.313117 174.5677,96.349575 176.51563,96.349567 C 177.29686,96.349575 178.05207,96.313117 178.78125,96.240192 L 178.78125,95.365192 C 178.78124,94.448535 178.59895,93.578745 178.23438,92.755817 C 178.0052,92.245413 177.60416,91.820934 177.03125,91.482379 C 176.45832,91.143851 175.79687,90.97458 175.04688,90.974567 C 173.8802,90.97458 172.94791,91.401663 172.25,92.255817 C 171.55208,93.109995 171.1927,94.438119 171.17188,96.240192 L 171.17188,96.240192 z " />
  </g>
</svg>
