<?xml version="1.0" encoding="UTF-8" standalone="no"?>
<svg
   width="48"
   height="18"
   viewBox="0 0 48 18"
   version="1.1"
   id="svg1"
   sodipodi:docname="20250211221158!Tipo_eléctrico_WikiDex.svg"
   inkscape:version="1.4 (86a8ad7, 2024-10-11)"
   inkscape:export-filename="FUEGO.png"
   inkscape:export-xdpi="96"
   inkscape:export-ydpi="96"
   xmlns:inkscape="http://www.inkscape.org/namespaces/inkscape"
   xmlns:sodipodi="http://sodipodi.sourceforge.net/DTD/sodipodi-0.dtd"
   xmlns:xlink="http://www.w3.org/1999/xlink"
   xmlns="http://www.w3.org/2000/svg"
   xmlns:svg="http://www.w3.org/2000/svg">
  <defs
     id="defs1">
    <linearGradient
       id="linearGradient19"
       inkscape:collect="always">
      <stop
         style="stop-color:#fac000;stop-opacity:1;"
         offset="0"
         id="stop19" />
      <stop
         style="stop-color:#fac000;stop-opacity:1;"
         offset="1"
         id="stop18" />
    </linearGradient>
    <linearGradient
       id="linearGradient1"
       inkscape:collect="always">
      <stop
         style="stop-color:#fac000;stop-opacity:1;"
         offset="0"
         id="stop1" />
      <stop
         style="stop-color:#fac000;stop-opacity:1;"
         offset="1"
         id="stop2" />
    </linearGradient>
    <radialGradient
       inkscape:collect="always"
       xlink:href="#linearGradient19"
       id="radialGradient6"
       cx="16.608459"
       cy="-18.298273"
       fx="16.608459"
       fy="-18.298273"
       r="24"
       gradientTransform="matrix(1,0,0,0.375,7.3915413,15.861853)"
       gradientUnits="userSpaceOnUse" />
    <radialGradient
       inkscape:collect="always"
       xlink:href="#linearGradient1"
       id="radialGradient6-2"
       cx="16.608459"
       cy="-18.298273"
       fx="16.608459"
       fy="-18.298273"
       r="24"
       gradientTransform="matrix(0.95833333,0,0,0.33333333,8.0835604,15.099424)"
       gradientUnits="userSpaceOnUse" />
  </defs>
  <sodipodi:namedview
     id="namedview1"
     pagecolor="#ffffff"
     bordercolor="#000000"
     borderopacity="0.25"
     inkscape:showpageshadow="2"
     inkscape:pageopacity="0.0"
     inkscape:pagecheckerboard="0"
     inkscape:deskcolor="#d1d1d1"
     inkscape:zoom="5.939697"
     inkscape:cx="19.866333"
     inkscape:cy="12.879445"
     inkscape:window-width="1245"
     inkscape:window-height="981"
     inkscape:window-x="659"
     inkscape:window-y="0"
     inkscape:window-maximized="0"
     inkscape:current-layer="svg1"
     showgrid="false">
    <inkscape:grid
       id="grid4"
       units="px"
       originx="0"
       originy="0"
       spacingx="1"
       spacingy="1"
       empcolor="#0099e5"
       empopacity="0.30196078"
       color="#0099e5"
       opacity="0.14901961"
       empspacing="5"
       dotted="false"
       gridanglex="30"
       gridanglez="30"
       visible="false" />
  </sodipodi:namedview>
  <path
     id="path3"
     style="fill:url(#radialGradient6);stroke:#661011;stroke-width:0;stroke-linecap:round;stroke-linejoin:round;stroke-dasharray:none;stroke-opacity:1"
     d="m 45.190508,16.946441 c -3.745988,1.404745 -38.6350284,1.404745 -42.3810163,0 -3.74598894,-1.404746 -3.74598894,-14.4881365 0,-15.8928815 3.7459879,-1.40474596 38.6350283,-1.40474596 42.3810163,0 3.745989,1.404745 3.745989,14.4881355 0,15.8928815 z" />
  <path
     id="path3-8"
     style="fill:url(#radialGradient6-2);stroke:#661011;stroke-width:0;stroke-linecap:round;stroke-linejoin:round;stroke-dasharray:none;stroke-opacity:1"
     d="m 44.30757,16.063502 c -3.589905,1.248664 -37.0252356,1.248664 -40.6151406,0 -3.58990571,-1.248663 -3.58990571,-12.8783426 0,-14.1270046 3.589905,-1.24866298 37.0252356,-1.24866298 40.6151406,0 3.589906,1.248662 3.589906,12.8783416 0,14.1270046 z" />
  <path
     d="m 2.4634534,10.747958 q -0.1145529,0 -0.1874502,-0.0729 -0.072897,-0.0729 -0.072897,-0.18745 V 3.7185754 q 0,-0.1145529 0.072897,-0.1874502 0.072897,-0.072897 0.1874502,-0.072897 h 4.7174969 q 0.1145529,0 0.1874502,0.072897 0.072897,0.072897 0.072897,0.1874502 v 0.8331121 q 0,0.104139 -0.072897,0.1770363 -0.072897,0.072897 -0.1874502,0.072897 H 3.8068466 v 1.6349823 h 3.1449979 q 0.1145529,0 0.1874502,0.072897 0.072897,0.072897 0.072897,0.1874502 v 0.7706287 q 0,0.104139 -0.072897,0.1770363 -0.072897,0.072897 -0.1874502,0.072897 H 3.8068466 V 9.404565 h 3.4574149 q 0.1145529,0 0.1874502,0.072897 0.072897,0.072897 0.072897,0.1874502 v 0.8226985 q 0,0.114553 -0.072897,0.18745 -0.072897,0.0729 -0.1874502,0.0729 z m 6.5607486,0 q -0.1145529,0 -0.1874502,-0.0729 -0.072897,-0.0729 -0.072897,-0.18745 V 3.7185754 q 0,-0.1145529 0.072897,-0.1874502 0.072897,-0.072897 0.1874502,-0.072897 h 1.155943 q 0.114553,0 0.18745,0.072897 0.0729,0.072897 0.0729,0.1874502 v 5.6339201 h 3.22831 q 0.114552,0 0.18745,0.072897 0.0729,0.072897 0.0729,0.1874502 v 0.874768 q 0,0.114553 -0.0729,0.18745 -0.0729,0.0729 -0.18745,0.0729 z m 6.123366,0 q -0.114553,0 -0.18745,-0.0729 -0.0729,-0.0729 -0.0729,-0.18745 V 3.7185754 q 0,-0.1145529 0.0729,-0.1874502 0.0729,-0.072897 0.18745,-0.072897 h 4.717497 q 0.114553,0 0.18745,0.072897 0.0729,0.072897 0.0729,0.1874502 v 0.8331121 q 0,0.104139 -0.0729,0.1770363 -0.0729,0.072897 -0.18745,0.072897 h -3.374104 v 1.6349823 h 3.144998 q 0.114553,0 0.18745,0.072897 0.0729,0.072897 0.0729,0.1874502 v 0.7706287 q 0,0.104139 -0.0729,0.1770363 -0.0729,0.072897 -0.18745,0.072897 H 16.490961 V 9.404565 h 3.457415 q 0.114553,0 0.18745,0.072897 0.0729,0.072897 0.0729,0.1874502 v 0.8226985 q 0,0.114553 -0.0729,0.18745 -0.0729,0.0729 -0.18745,0.0729 z m 1.697466,-7.8104251 q -0.166623,0 -0.166623,-0.1666224 0,-0.083311 0.05207,-0.1353807 l 0.885181,-1.0726317 q 0.09372,-0.1249669 0.166623,-0.1562086 0.08331,-0.041656 0.218692,-0.041656 h 1.280909 q 0.197864,0 0.197864,0.2082781 0,0.072897 -0.05207,0.1249668 l -1.343393,1.0934595 q -0.08331,0.072897 -0.166623,0.1145529 -0.08331,0.031242 -0.218692,0.031242 z m 7.435769,7.9145641 q -0.978907,0 -1.666224,-0.322831 -0.676904,-0.333245 -1.051804,-0.9580786 -0.374901,-0.6352479 -0.416556,-1.5412572 -0.01041,-0.4269699 -0.01041,-0.9164232 0,-0.4894534 0.01041,-0.9372511 0.04166,-0.8955954 0.416556,-1.5204294 0.385314,-0.635248 1.072631,-0.9684928 0.687318,-0.3332448 1.645397,-0.3332448 0.697731,0 1.270496,0.1770363 0.572764,0.1770363 0.98932,0.5102811 0.416556,0.3332449 0.645662,0.7810426 0.229106,0.4477977 0.249934,0.9997344 0,0.093725 -0.0729,0.1562085 -0.06248,0.062483 -0.156208,0.062483 h -1.187185 q -0.124967,0 -0.197864,-0.062483 -0.0729,-0.062483 -0.114553,-0.208278 -0.156208,-0.6144201 -0.520695,-0.8435259 -0.364486,-0.2291058 -0.906009,-0.2291058 -0.645662,0 -1.020563,0.3540726 -0.3749,0.3540726 -0.406142,1.1767707 -0.03124,0.8539399 0,1.7495353 0.03124,0.8226981 0.406142,1.1767707 0.374901,0.3540726 1.020563,0.3540726 0.541523,0 0.906009,-0.2291058 0.3749,-0.2395197 0.520695,-0.8435259 0.04166,-0.1562085 0.114553,-0.208278 0.0729,-0.062483 0.197864,-0.062483 h 1.187185 q 0.09372,0 0.156208,0.062483 0.0729,0.062483 0.0729,0.1562085 -0.02083,0.5519367 -0.249934,0.9997344 -0.229106,0.4477978 -0.645662,0.7810428 -0.416556,0.333245 -0.98932,0.510281 -0.572765,0.177036 -1.270496,0.177036 z m 6.185866,-0.104139 q -0.114553,0 -0.18745,-0.0729 -0.0729,-0.0729 -0.0729,-0.18745 V 4.9057601 h -1.89533 q -0.104139,0 -0.177036,-0.072897 -0.0729,-0.072897 -0.0729,-0.1770363 V 3.7185754 q 0,-0.1145529 0.0729,-0.1874502 0.0729,-0.072897 0.177036,-0.072897 h 5.456884 q 0.114553,0 0.18745,0.072897 0.0729,0.072897 0.0729,0.1874502 v 0.9372511 q 0,0.104139 -0.0729,0.1770363 -0.0729,0.072897 -0.18745,0.072897 H 31.88296 v 5.5818509 q 0,0.114553 -0.0729,0.18745 -0.0729,0.0729 -0.18745,0.0729 z m 4.82164,0 q -0.114553,0 -0.18745,-0.0729 -0.0729,-0.0729 -0.0729,-0.18745 V 3.7185754 q 0,-0.1145529 0.0729,-0.1874502 0.0729,-0.072897 0.18745,-0.072897 h 2.759684 q 1.301737,0 2.051538,0.6040062 0.749801,0.5935924 0.749801,1.7182936 0,0.7602147 -0.364486,1.2704959 -0.364487,0.5102811 -0.978907,0.7602147 l 1.46836,2.6034747 q 0.03124,0.06248 0.03124,0.114553 0,0.08331 -0.06248,0.156209 -0.06248,0.06248 -0.156208,0.06248 h -1.155943 q -0.18745,0 -0.281176,-0.09373 -0.09372,-0.104139 -0.13538,-0.18745 L 37.943854,8.0819997 h -1.260082 v 2.4056113 q 0,0.114553 -0.0729,0.18745 -0.0729,0.0729 -0.187451,0.0729 z m 1.395463,-3.9885237 h 1.332979 q 0.572765,0 0.843526,-0.2603475 0.281175,-0.2603475 0.281175,-0.728973 0,-0.4686255 -0.270761,-0.7393869 -0.270761,-0.2707614 -0.85394,-0.2707614 h -1.332979 z m 5.706809,3.9885237 q -0.114553,0 -0.18745,-0.0729 -0.0729,-0.0729 -0.0729,-0.18745 V 3.7185754 q 0,-0.1145529 0.0729,-0.1874502 0.0729,-0.072897 0.18745,-0.072897 h 1.176771 q 0.114553,0 0.18745,0.072897 0.0729,0.072897 0.0729,0.1874502 v 6.7690356 q 0,0.114553 -0.0729,0.18745 -0.0729,0.0729 -0.18745,0.0729 z m 5.873448,0.104139 q -0.978906,0 -1.666224,-0.322831 -0.676903,-0.333245 -1.051804,-0.9580786 -0.3749,-0.6352479 -0.416556,-1.5412572 -0.01041,-0.4269699 -0.01041,-0.9164232 0,-0.4894534 0.01041,-0.9372511 0.04166,-0.8955954 0.416556,-1.5204294 0.385315,-0.635248 1.072632,-0.9684928 0.687318,-0.3332448 1.645396,-0.3332448 0.697732,0 1.270496,0.1770363 0.572765,0.1770363 0.989321,0.5102811 0.416556,0.3332449 0.645662,0.7810426 0.229105,0.4477977 0.249933,0.9997344 0,0.093725 -0.0729,0.1562085 -0.06248,0.062483 -0.156209,0.062483 h -1.187184 q -0.124967,0 -0.197864,-0.062483 -0.0729,-0.062483 -0.114553,-0.208278 -0.156209,-0.6144201 -0.520695,-0.8435259 -0.364487,-0.2291058 -0.90601,-0.2291058 -0.645661,0 -1.020562,0.3540726 -0.3749,0.3540726 -0.406142,1.1767707 -0.03124,0.8539399 0,1.7495353 0.03124,0.8226981 0.406142,1.1767707 0.374901,0.3540726 1.020562,0.3540726 0.541523,0 0.90601,-0.2291058 0.3749,-0.2395197 0.520695,-0.8435259 0.04165,-0.1562085 0.114553,-0.208278 0.0729,-0.062483 0.197864,-0.062483 h 1.187184 q 0.09373,0 0.156209,0.062483 0.0729,0.062483 0.0729,0.1562085 -0.02083,0.5519367 -0.249933,0.9997344 -0.229106,0.4477978 -0.645662,0.7810428 -0.416556,0.333245 -0.989321,0.510281 -0.572764,0.177036 -1.270496,0.177036 z m 7.216843,0 q -0.947665,0 -1.634982,-0.312417 -0.687318,-0.312417 -1.072632,-0.9372509 -0.385314,-0.6352479 -0.416556,-1.5933267 -0.01041,-0.4477977 -0.01041,-0.8851815 0,-0.4477978 0.01041,-0.9060094 0.03124,-0.937251 0.416556,-1.5724989 0.395728,-0.6456619 1.083046,-0.9684928 0.697731,-0.3228309 1.624568,-0.3228309 0.916423,0 1.603741,0.3228309 0.697731,0.3228309 1.093459,0.9684928 0.395729,0.6352479 0.416556,1.5724989 0.02083,0.4582116 0.02083,0.9060094 0,0.4373838 -0.02083,0.8851815 -0.03124,0.9580788 -0.416556,1.5933267 -0.385314,0.6248339 -1.072631,0.9372509 -0.687318,0.312417 -1.624569,0.312417 z m 0,-1.343393 q 0.604006,0 0.989321,-0.3644865 0.395728,-0.3749004 0.416556,-1.1871846 0.02083,-0.4582116 0.02083,-0.8539398 0,-0.4061422 -0.02083,-0.8539399 Q 56.876335,5.7076304 56.688885,5.3639717 56.501434,5.020313 56.189017,4.8641045 55.887014,4.6974821 55.480872,4.6974821 q -0.406142,0 -0.718559,0.1666224 -0.312417,0.1562085 -0.499867,0.4998672 -0.177037,0.3436587 -0.197864,0.8851815 -0.01041,0.4477977 -0.01041,0.8539399 0,0.3957282 0.01041,0.8539398 0.03124,0.8122842 0.416556,1.1871846 0.385314,0.3644865 0.999734,0.3644865 z"
     id="text1-8"
     style="font-weight:600;font-size:10.4139px;font-family:Rubik;-inkscape-font-specification:'Rubik Semi-Bold';text-align:center;text-anchor:middle;fill:#ffffff;stroke-width:0.518779;stroke-linecap:round;stroke-linejoin:round"
     transform="scale(0.78923272,1.2670534)"
     aria-label="ELÉCTRICO" />
</svg>
