<?xml version="1.0" encoding="UTF-8" standalone="no"?>
<svg
   height="37.5"
   viewBox="0 -960 768.00003 750"
   width="38.400002"
   fill="#000000"
   version="1.1"
   id="svg1"
   sodipodi:docname="volume.svg"
   inkscape:version="1.4 (86a8ad7, 2024-10-11)"
   xmlns:inkscape="http://www.inkscape.org/namespaces/inkscape"
   xmlns:sodipodi="http://sodipodi.sourceforge.net/DTD/sodipodi-0.dtd"
   xmlns="http://www.w3.org/2000/svg"
   xmlns:svg="http://www.w3.org/2000/svg">
  <defs
     id="defs1" />
  <sodipodi:namedview
     id="namedview1"
     pagecolor="#ffffff"
     bordercolor="#000000"
     borderopacity="0.25"
     inkscape:showpageshadow="2"
     inkscape:pageopacity="0.0"
     inkscape:pagecheckerboard="0"
     inkscape:deskcolor="#d1d1d1"
     inkscape:zoom="4.078125"
     inkscape:cx="21.088123"
     inkscape:cy="29.547893"
     inkscape:window-width="1920"
     inkscape:window-height="1001"
     inkscape:window-x="-9"
     inkscape:window-y="-9"
     inkscape:window-maximized="1"
     inkscape:current-layer="svg1" />
  <path
     d="m 486,-232 v -72.2 Q 581,-333 640.5,-410 700,-487 700,-586 700,-685 640.5,-762.5 581,-840 486,-868.8 V -941 q 124.23,30.75 203.11,129.37 Q 768,-713 768,-586 768,-459 689.61,-359.87 611.23,-260.75 486,-232 Z M 0,-442 v -287 h 173 l 233,-231 v 750 L 173,-442 Z m 466,33 v -353 q 58,21 93.5,68.58 35.5,47.58 35.5,108.49 0,60.93 -35.5,108.43 Q 524,-429 466,-409 Z"
     id="path1"
     style="fill:#ffffff;fill-opacity:1" />
</svg>
